<svg width="12" height="16" viewBox="0 0 12 16" fill="none" xmlns="http://www.w3.org/2000/svg">
<path fill-rule="evenodd" clip-rule="evenodd" d="M5.93949 2.65479C3.85949 2.65479 2.16849 4.34679 2.16849 6.42579V8.14079C2.16549 9.40479 1.92549 10.6388 1.45549 11.8108L10.5285 11.6548C9.97149 10.6778 9.71349 9.46879 9.71149 8.14079V6.42579C9.71149 4.34679 8.01949 2.65479 5.93949 2.65479ZM0.597491 12.8528C0.267491 12.8518 -0.000508929 12.5828 0.000491071 12.2528C0.000491071 12.1588 0.0224911 12.0668 0.0644911 11.9848C0.652491 10.7998 0.965491 9.47279 0.969491 8.14979V6.42579C0.969491 3.68579 3.19949 1.45679 5.93949 1.45679C8.67949 1.45679 10.9095 3.68579 10.9095 6.42579V8.14079C10.9135 9.46279 11.2275 10.7888 11.8155 11.9748C11.9695 12.2628 11.8575 12.6268 11.5665 12.7828C11.4795 12.8288 11.3805 12.8528 11.2815 12.8528H0.597491Z" fill="white"/>
<path fill-rule="evenodd" clip-rule="evenodd" d="M5.93948 2.65479C5.60948 2.65479 5.34048 2.38579 5.34048 2.05479V0.598786C5.34048 0.268786 5.60948 -0.000213623 5.93948 -0.000213623C6.27048 -0.000213623 6.53848 0.268786 6.53848 0.598786V2.05479C6.53848 2.38579 6.27048 2.65479 5.93948 2.65479Z" fill="white"/>
<path fill-rule="evenodd" clip-rule="evenodd" d="M5.93949 15.0923C4.53849 15.0923 3.39749 13.9523 3.39749 12.5513C3.39749 12.2203 3.66649 11.9513 3.99749 11.9513C4.32749 11.9513 4.59549 12.2203 4.59549 12.5513C4.59649 12.9093 4.73649 13.2463 4.99049 13.5003C5.24649 13.7433 5.58449 13.8783 5.93949 13.8783C6.29449 13.8783 6.63249 13.7433 6.89149 13.4983C7.00249 13.3873 7.15349 13.3243 7.31449 13.3243C7.47449 13.3243 7.62549 13.3873 7.73849 13.5003C7.85249 13.6133 7.91549 13.7643 7.91549 13.9253C7.91549 14.0863 7.85249 14.2373 7.73849 14.3503C7.25949 14.8283 6.62149 15.0923 5.94349 15.0923H5.93949Z" fill="white"/>
</svg>
