<svg width="4" height="10" viewBox="0 0 4 10" xmlns="http://www.w3.org/2000/svg">
<path fill-rule="evenodd" clip-rule="evenodd" d="M1.93113 0.252709C1.95545 0.106597 2.0761 0 2.21714 0H2.98369C3.06945 0 3.15083 0.0398786 3.206 0.108943C3.26117 0.178006 3.28449 0.269189 3.26969 0.35804L2.66575 3.98589C2.66486 3.99119 2.66385 3.99647 2.6627 4.00171L2.02391 6.92109C1.99357 7.05974 1.87622 7.15798 1.74095 7.15798H1.26476C1.18145 7.15798 1.10215 7.12034 1.04703 7.05464C0.991914 6.98894 0.966284 6.90151 0.976659 6.81457L1.32509 3.89519C1.32567 3.8903 1.32637 3.88542 1.32718 3.88056L1.93113 0.252709ZM1.82648 9.74483C1.80314 9.89208 1.68201 10 1.54007 10H0.564462C0.47911 10 0.398081 9.9605 0.342912 9.89201C0.287743 9.82352 0.264022 9.73297 0.278053 9.64442L0.475498 8.39849C0.498832 8.25125 0.619967 8.14332 0.761907 8.14332H1.73751C1.82287 8.14332 1.9039 8.18282 1.95906 8.25131C2.01423 8.3198 2.03795 8.41035 2.02392 8.4989L1.82648 9.74483Z"/>
</svg>
