<svg width="13" height="15" viewBox="0 0 13 15" fill="none" xmlns="http://www.w3.org/2000/svg">
<path fill-rule="evenodd" clip-rule="evenodd" d="M6.82353 11.3148H1.93287C1.43167 11.3288 1.2702 10.7697 1.50727 10.4897C1.92447 9.996 3.02673 9.24934 3.02673 6.41947C3.02673 3.09307 4.46313 1.4 6.82353 1.4H6.92527C9.2866 1.4 10.7221 3.09307 10.7221 6.41947C10.7221 9.24934 11.8243 9.996 12.2425 10.4897C12.4795 10.7697 12.3181 11.3288 11.8169 11.3148H6.92527H6.82353Z"/>
<path d="M9.02201 12.2742C9.02201 13.4605 8.06067 14.4218 6.87441 14.4218C5.68907 14.4218 4.72681 13.4605 4.72681 12.2742"/>
<path d="M4.90845 4.95749C4.90845 3.92606 5.74416 3.09083 6.77511 3.09083"/>
</svg>
