<svg width="22" height="22" viewBox="0 0 22 22" xmlns="http://www.w3.org/2000/svg">
<path fill-rule="evenodd" clip-rule="evenodd" d="M0.1875 13.8726C0.1875 6.30243 6.31378 0.176147 13.8839 0.176147V1.67615C7.14221 1.67615 1.6875 7.13086 1.6875 13.8726H0.1875ZM7.96882 9.25391C7.77128 8.4709 8.48187 7.76032 9.26487 7.95786L9.30777 7.96868L20.1179 12.0992C20.8766 12.333 21.1285 13.3002 20.5556 13.8731L20.5285 13.9002L18.5628 15.5007L21.3688 18.3067C21.8064 18.7443 21.8083 19.4539 21.3695 19.8927L19.9037 21.3585C19.4649 21.7973 18.7553 21.7955 18.3176 21.3578L15.5116 18.5519L13.9112 20.5176L13.8841 20.5447C13.3118 21.117 12.3433 20.8664 12.1105 20.1054L7.97965 9.29684L7.96882 9.25391ZM9.7572 9.74617L13.2679 18.9319L15.3975 16.3164L19.111 20.0299L20.0409 19.1L16.3273 15.3865L18.9437 13.2563L9.7572 9.74617Z"/>
</svg>
