<svg width="11" height="10" viewBox="0 0 11 10" xmlns="http://www.w3.org/2000/svg">
<path fill-rule="evenodd" clip-rule="evenodd" d="M1.201 3.602L2.101 0.901H8.704L9.605 3.602H1.201ZM8.704 6.603C8.206 6.603 7.804 6.202 7.804 5.703C7.804 5.205 8.206 4.803 8.704 4.803C9.203 4.803 9.605 5.205 9.605 5.703C9.605 6.202 9.203 6.603 8.704 6.603ZM2.101 6.603C1.603 6.603 1.201 6.202 1.201 5.703C1.201 5.205 1.603 4.803 2.101 4.803C2.599 4.803 3.002 5.205 3.002 5.703C3.002 6.202 2.599 6.603 2.101 6.603ZM9.557 0.607C9.434 0.252 9.098 0 8.704 0H2.101C1.708 0 1.372 0.252 1.249 0.607L0 4.203V9.005C0 9.335 0.27 9.605 0.6 9.605H1.201C1.534 9.605 1.801 9.335 1.801 9.005V8.405H9.005V9.005C9.005 9.335 9.275 9.605 9.605 9.605H10.205C10.538 9.605 10.805 9.335 10.805 9.005V4.203L9.557 0.607Z"/>
</svg>
