<svg width="27" height="24" viewBox="0 0 27 24" xmlns="http://www.w3.org/2000/svg">
<path fill-rule="evenodd" clip-rule="evenodd" d="M13.4172 0.602295C13.4172 0.602295 1.23523 8.72129 1.21623 8.73629C1.05123 8.86129 1.08823 9.0253 1.34323 9.0253C1.34923 9.0253 25.1652 9.01429 25.1982 9.01429C25.4292 9.01429 25.5602 8.8263 25.3412 8.64729C25.3372 8.64329 13.4172 0.602295 13.4172 0.602295Z" stroke-linecap="round"/>
<path fill-rule="evenodd" clip-rule="evenodd" d="M13.3239 4.15796C13.3239 4.15796 9.6489 6.60696 9.6429 6.61096C9.5939 6.64896 9.6049 6.69796 9.6819 6.69796C9.6829 6.69796 16.8679 6.69496 16.8779 6.69496C16.9469 6.69496 16.9869 6.63796 16.9209 6.58496C16.9199 6.58396 13.3239 4.15796 13.3239 4.15796Z" stroke-linecap="round"/>
<path d="M2.6709 22.9421V21.5191C2.6709 21.3451 2.8129 21.2041 2.9859 21.2041H23.5829C23.7569 21.2041 23.8979 21.3451 23.8979 21.5191V22.9421" stroke-linecap="round"/>
<path d="M23.8969 9.31714V10.7411C23.8969 10.9151 23.7559 11.0551 23.5829 11.0551H2.98592C2.81192 11.0551 2.66992 10.9151 2.66992 10.7411V9.31714" stroke-linecap="round"/>
<path d="M5.40527 11.5427V21.0467" stroke-linecap="round"/>
<path d="M8.05176 11.5427V21.0467" stroke-linecap="round"/>
<path d="M11.9922 11.5828V21.0468" stroke-linecap="round"/>
<path d="M14.6387 11.5828V21.0468" stroke-linecap="round"/>
<path d="M18.5176 11.5828V21.0468" stroke-linecap="round"/>
<path d="M0.5 23.0164H26.368" stroke-linecap="round"/>
<path d="M21.1641 11.5828V21.0468" stroke-linecap="round"/>
</svg>
