<svg width="87" height="87" viewBox="0 0 87 87" fill="none" xmlns="http://www.w3.org/2000/svg">
<path fill-rule="evenodd" clip-rule="evenodd" d="M47.6096 16.8357L32.2536 19.9677C30.0236 22.3687 28.6506 25.5757 28.6506 29.1107C28.6506 34.7127 32.0746 39.5127 36.9426 41.5387L51.7206 38.5247C54.0986 36.0977 55.5686 32.7767 55.5686 29.1107C55.5686 23.6397 52.2976 18.9397 47.6096 16.8357Z" fill="#5C64B7"/>
<path fill-rule="evenodd" clip-rule="evenodd" d="M30.7885 68.1931C30.7885 68.1931 50.0195 61.6531 56.5045 61.8191C62.9885 61.9861 83.9925 75.9611 83.9925 75.9611L77.8615 85.9021L76.0955 86.0681L71.0135 83.4171L70.2955 82.1471L70.9395 80.6601C70.9395 80.6601 66.1165 76.2201 58.3565 76.8491C47.6865 77.7141 39.1015 78.5021 39.1015 78.5021C39.1015 78.5021 37.1895 78.2531 34.9455 76.9221C32.7005 75.5921 2.18952 61.3771 2.18952 61.3771C2.18952 61.3771 0.776523 59.4641 2.18952 58.5491C3.60352 57.6351 5.59952 56.7201 5.59952 56.7201L29.3965 66.6281L30.7885 68.1931Z" fill="#5C64B7"/>
<path d="M54.3118 65.3699C54.3118 65.3699 42.4178 67.9309 34.8948 69.4739C31.2058 70.2299 29.3968 66.6279 29.3968 66.6279C32.0488 62.5279 43.6418 56.9129 51.1738 55.5329C58.7078 54.1539 62.2948 55.3879 66.8578 58.4059C70.6958 60.9449 78.9518 66.3629 78.9518 66.3629L70.7588 80.5469C70.7588 80.5469 65.8518 78.0129 63.7988 77.1949C62.5128 76.6829 60.2918 76.8079 60.2918 76.8079C60.2918 76.8079 43.9738 77.9989 39.9028 78.3779C38.0718 78.5489 36.6688 77.7799 36.6688 77.7799C36.6688 77.7799 4.89681 62.5289 2.87781 61.5569C0.859808 60.5859 1.45781 59.4649 1.45781 59.4649C5.56981 54.1559 12.5218 56.9969 12.5218 56.9969L31.1328 64.6019" stroke="#232754" stroke-linecap="round"/>
<path d="M10.9524 56.3992C10.9524 56.3992 14.1424 51.3322 20.6704 53.0352C24.1094 53.9322 38.1264 60.0682 38.1264 60.0682" stroke="#232754" stroke-linecap="round"/>
<path d="M23.7053 54.0398C23.7053 54.0398 27.9493 48.8798 34.4613 51.6768C37.6273 53.0368 45.6983 56.9338 45.6983 56.9338" stroke="#232754" stroke-linecap="round"/>
<path fill-rule="evenodd" clip-rule="evenodd" d="M67.7122 37.9685L22.6352 47.1615C21.0462 47.4865 19.4952 46.4605 19.1712 44.8725L14.9402 24.1245C14.6152 22.5355 15.6412 20.9855 17.2302 20.6605L62.3072 11.4675C63.8952 11.1435 65.4452 12.1685 65.7702 13.7575L70.0012 34.5055C70.3252 36.0945 69.3002 37.6445 67.7122 37.9685Z" stroke="#232754" stroke-linecap="round"/>
<path d="M38.4896 9.79662L36.8386 1.70062" stroke="#232754" stroke-linecap="round"/>
<path d="M31.5541 11.2116L24.6611 6.65363" stroke="#232754" stroke-linecap="round"/>
<path d="M45.426 8.38162L49.983 1.48962" stroke="#232754" stroke-linecap="round"/>
<path fill-rule="evenodd" clip-rule="evenodd" d="M58.9135 14.8239C58.9055 14.7819 58.9085 14.7409 58.9015 14.6999L21.7605 22.2749C21.7695 22.3159 21.7885 22.3519 21.7975 22.3939C22.2375 24.5549 20.8435 26.6659 18.6815 27.1059C18.6445 27.1139 18.6095 27.1109 18.5735 27.1169L21.3505 40.7319C21.3865 40.7229 21.4175 40.7079 21.4535 40.6999C23.6155 40.2589 25.7255 41.6539 26.1665 43.8149C26.1725 43.8449 26.1695 43.8729 26.1755 43.9019L63.3095 36.3289C63.3025 36.2999 63.2885 36.2739 63.2825 36.2449C62.8445 34.0929 64.2265 31.9929 66.3745 31.5409L63.6005 17.9419C61.4475 18.3659 59.3525 16.9769 58.9135 14.8239Z" stroke="#232754" stroke-linecap="round"/>
<path fill-rule="evenodd" clip-rule="evenodd" d="M39.6714 34.2185L46.4714 32.8315L39.6714 34.2185Z" fill="white"/>
<path d="M39.6714 34.2185L46.4714 32.8315" stroke="#232754" stroke-linecap="round"/>
<path d="M38.8412 31.5827L43.1642 30.7007C45.1082 30.3047 46.3732 28.3897 45.9782 26.4457L45.7562 25.3617C45.3602 23.4187 43.4452 22.1527 41.5022 22.5497L37.1792 23.4317L39.8622 36.5897" stroke="#232754" stroke-linecap="round"/>
<path fill-rule="evenodd" clip-rule="evenodd" d="M78.4262 35.9148C78.4262 35.9148 77.9992 42.3638 73.1292 45.7708C73.1292 45.7708 77.7662 48.8138 78.9082 55.2638C78.9082 55.2638 78.9322 49.0858 83.9642 45.7708C83.9642 45.7708 78.9332 42.4858 78.4262 35.9148Z" fill="#39408A"/>
<path fill-rule="evenodd" clip-rule="evenodd" d="M10.0922 0.999695C10.0922 0.999695 9.80221 5.3847 6.49121 7.7007C6.49121 7.7007 9.64321 9.7697 10.4192 14.1537C10.4192 14.1537 10.4362 9.95469 13.8582 7.7007C13.8582 7.7007 10.4372 5.46769 10.0922 0.999695Z" fill="#39408A"/>
<path d="M78.9515 66.363L84.7635 69.843C84.7635 69.843 86.3905 70.986 85.6445 72.726C84.8995 74.466 78.6125 85.136 78.6125 85.136C78.6125 85.136 77.3445 87.101 75.2345 85.826C73.6645 84.877 71.0285 83.413 71.0285 83.413C71.0285 83.413 69.5125 82.516 70.7595 80.547" stroke="#232754" stroke-linecap="round"/>
<path fill-rule="evenodd" clip-rule="evenodd" d="M78.5081 79.9158C78.5081 80.9718 77.6531 81.8278 76.5961 81.8278C75.5401 81.8278 74.6841 80.9718 74.6841 79.9158C74.6841 78.8588 75.5401 78.0038 76.5961 78.0038C77.6531 78.0038 78.5081 78.8588 78.5081 79.9158Z" stroke="#232754" stroke-linecap="round"/>
</svg>
