<svg width="89" height="82" viewBox="0 0 89 82" fill="none" xmlns="http://www.w3.org/2000/svg">
<path fill-rule="evenodd" clip-rule="evenodd" d="M48.8843 27.8861L68.4463 41.8241V35.8061L53.1493 24.6791L48.8843 27.8861Z" fill="#6575B7"/>
<path fill-rule="evenodd" clip-rule="evenodd" d="M18.4858 30.9955L20.2628 16.4195C18.9178 15.4175 17.2558 14.8165 15.4478 14.8165C11.8198 14.8165 8.74976 17.2055 7.72376 20.4955C7.04076 20.1905 6.28576 20.0165 5.48876 20.0165C2.45776 20.0165 -0.000244141 22.4745 -0.000244141 25.5065C-0.000244141 28.4895 2.38176 30.9125 5.34676 30.9885V30.9955H18.4858Z" fill="#8797D8"/>
<path fill-rule="evenodd" clip-rule="evenodd" d="M59.9858 29.6967V68.7237L79.8698 68.7447L79.8148 57.6197C79.8148 57.6197 70.7288 58.1077 71.2548 47.0777L71.9898 38.3267L59.9858 29.6967Z" fill="#6575B7"/>
<path d="M25.4741 68.6391H30.9581" stroke="#44538B" stroke-linecap="round"/>
<path d="M25.2485 66.4672H28.7345C30.3025 66.4672 31.5845 65.1852 31.5845 63.6172V62.7422C31.5845 61.1752 30.3025 59.8932 28.7345 59.8932H25.2485V70.5052" stroke="#44538B" stroke-linecap="round"/>
<path fill-rule="evenodd" clip-rule="evenodd" d="M84.1323 22.9633C82.5773 16.3403 81.7923 12.0643 79.6013 11.7323V57.6103C79.6733 57.6113 79.7423 57.6203 79.8153 57.6193C84.4863 57.5973 88.2913 54.1303 88.2693 49.5513C88.2283 41.2763 84.1323 22.9633 84.1323 22.9633" fill="#8797D8"/>
<path d="M23.2642 41.1L53.1212 18.932L72.7072 33.117" stroke="#44538B" stroke-linecap="round"/>
<path d="M30.0688 41.848L53.1488 24.679L71.9898 38.327" stroke="#44538B" stroke-linecap="round"/>
<path fill-rule="evenodd" clip-rule="evenodd" d="M79.8149 57.6195V57.6195C75.1439 57.6425 71.3049 54.1235 71.2829 49.6345C71.2399 40.7725 74.6039 22.5535 74.6039 22.5535C75.5439 16.9375 76.4149 11.7145 79.3139 11.6995C81.7299 11.6875 82.5109 16.0565 84.1319 22.9635C84.1319 22.9635 88.2289 41.2775 88.2689 49.5515C88.2919 54.1305 84.4869 57.5975 79.8149 57.6195Z" stroke="#44538B" stroke-linecap="round"/>
<path d="M15.9829 54.7611C16.2539 41.7661 20.3109 16.7681 20.3109 16.7681C21.4979 8.80309 22.5999 1.39309 26.2789 1.37509C29.3429 1.36009 30.3369 7.55609 32.3999 17.3571C32.3999 17.3571 33.2099 21.3941 34.1939 27.0041" stroke="#44538B" stroke-linecap="round"/>
<path d="M79.7192 38.0258L79.8692 68.4688" stroke="#44538B" stroke-linecap="round"/>
<path d="M26.3462 20.2348V38.5818" stroke="#44538B" stroke-linecap="round"/>
<path d="M30.104 41.8783L30.142 49.7573" stroke="#44538B" stroke-linecap="round"/>
<path d="M42.6255 68.7885L86.2205 68.5745" stroke="#44538B" stroke-linecap="round"/>
<path d="M36.3675 52.2318L36.3555 49.8698C36.3395 46.4188 39.1225 43.6088 42.5725 43.5908C46.0225 43.5748 48.8335 46.3578 48.8495 49.8078L48.9425 68.6198" stroke="#44538B" stroke-linecap="round"/>
<path d="M71.5171 44.6381L57.2121 44.6991C56.7751 44.7001 56.4211 45.0571 56.4241 45.4941L56.4781 56.5891C56.4801 57.0271 56.8361 57.3801 57.2751 57.3771L71.6681 57.3071C72.1061 57.3051 72.4581 56.9491 72.4561 56.5111V53.7241" stroke="#44538B" stroke-linecap="round"/>
<path fill-rule="evenodd" clip-rule="evenodd" d="M43.0309 65.2338C43.0729 73.7818 36.1769 80.7448 27.6299 80.7868C19.0819 80.8288 12.1189 73.9328 12.0769 65.3848C12.0349 56.8378 18.9299 49.8748 27.4779 49.8328C36.0259 49.7908 42.9899 56.6858 43.0309 65.2338Z" stroke="#44538B" stroke-linecap="round"/>
<path fill-rule="evenodd" clip-rule="evenodd" d="M39.2475 65.2523C39.2795 71.7103 34.0695 76.9723 27.6105 77.0033C21.1525 77.0353 15.8915 71.8253 15.8595 65.3663C15.8285 58.9083 21.0385 53.6473 27.4965 53.6153C33.9555 53.5833 39.2165 58.7943 39.2475 65.2523Z" stroke="#44538B" stroke-linecap="round"/>
<path d="M64.224 44.808C64.224 44.808 63.018 52.802 56.479 53.373" stroke="#44538B" stroke-linecap="round"/>
<path d="M64.271 44.808C64.271 44.808 65.477 52.802 72.016 53.373" stroke="#44538B" stroke-linecap="round"/>
<path d="M59.7719 57.3705C59.7719 57.3705 59.3149 53.4165 56.5759 53.4165" stroke="#44538B" stroke-linecap="round"/>
<path d="M69.1597 57.268C69.1597 57.268 69.7007 53.416 72.1617 53.416" stroke="#44538B" stroke-linecap="round"/>
</svg>
