<svg width="106" height="74" viewBox="0 0 106 74" fill="none" xmlns="http://www.w3.org/2000/svg">
<path fill-rule="evenodd" clip-rule="evenodd" d="M94.0076 49.057V3.38398C94.0076 1.71798 92.6566 0.367981 90.9906 0.367981H70.9246V39.146L94.0076 49.057Z" fill="#735C9C"/>
<path fill-rule="evenodd" clip-rule="evenodd" d="M45.7908 38.6566C45.7908 38.6566 52.3598 34.8636 70.3908 37.6906C86.3198 40.1876 95.5848 46.7306 95.5848 46.7306H101.782C101.782 46.7306 104.944 46.7046 104.944 50.6906V63.4486L103.713 67.3546H97.3158C97.3158 67.3546 98.6018 56.0226 87.6408 56.0226C83.5708 56.0226 80.6158 59.1176 79.5168 62.1446C78.5688 64.7516 79.2128 67.3546 79.2128 67.3546H51.6268V49.7596L81.4658 49.9876C81.4658 49.9876 83.9388 49.6176 80.8078 46.3436C77.6758 43.0696 70.7008 36.9486 45.7908 38.6566Z" fill="#9D81CE"/>
<path d="M44.946 38.8212C44.946 38.8212 61.754 36.6732 72.218 40.8382C82.682 45.0032 82.581 49.0672 82.581 49.0672C82.581 49.0672 82.709 49.9882 81.466 49.9882H39.335C39.335 49.9882 32.688 49.8702 31.072 46.5272" stroke="#523F70"/>
<path d="M52.2224 38.4081C52.2224 38.4081 43.3254 40.6981 43.3254 49.5301V67.3251" stroke="#523F70"/>
<path d="M69.2323 40.0438V54.4368C69.2323 54.4368 69.7753 67.3508 56.1023 67.3508" stroke="#523F70"/>
<path fill-rule="evenodd" clip-rule="evenodd" d="M101.782 46.7304H95.5852C84.6132 40.3304 70.7962 36.6724 56.7762 36.6724C42.7562 36.6724 31.0722 46.5274 31.0722 46.5274C17.5602 46.5274 6.79122 50.4894 3.13422 53.8424C-0.52378 57.1944 0.69522 67.3544 0.69522 67.3544H10.1932C10.0432 66.6904 9.96022 66.0014 9.96022 65.2914C9.96022 60.1634 14.1172 56.0064 19.2452 56.0064C24.3732 56.0064 28.5292 60.1634 28.5292 65.2914C28.5292 66.0014 28.4472 66.6904 28.2972 67.3544H79.2132C79.0622 66.6904 78.9792 66.0014 78.9792 65.2914C78.9792 60.1634 83.1362 56.0064 88.2642 56.0064C93.3922 56.0064 97.5502 60.1634 97.5502 65.2914C97.5502 66.0014 97.4672 66.6904 97.3162 67.3544H103.713L104.932 63.7984V50.2864C104.932 46.9334 101.782 46.7304 101.782 46.7304Z" stroke="#523F70"/>
<path fill-rule="evenodd" clip-rule="evenodd" d="M26.7078 65.4071C26.7078 69.5151 23.3778 72.8441 19.2708 72.8441C15.1618 72.8441 11.8318 69.5151 11.8318 65.4071C11.8318 61.2991 15.1618 57.9691 19.2708 57.9691C23.3778 57.9691 26.7078 61.2991 26.7078 65.4071Z" stroke="#523F70"/>
<path fill-rule="evenodd" clip-rule="evenodd" d="M22.2352 65.4071C22.2352 67.0441 20.9072 68.3721 19.2702 68.3721C17.6322 68.3721 16.3052 67.0441 16.3052 65.4071C16.3052 63.7701 17.6322 62.4421 19.2702 62.4421C20.9072 62.4421 22.2352 63.7701 22.2352 65.4071Z" stroke="#523F70"/>
<path fill-rule="evenodd" clip-rule="evenodd" d="M95.7273 65.4071C95.7273 69.5151 92.3973 72.8441 88.2903 72.8441C84.1813 72.8441 80.8513 69.5151 80.8513 65.4071C80.8513 61.2991 84.1813 57.9691 88.2903 57.9691C92.3973 57.9691 95.7273 61.2991 95.7273 65.4071Z" stroke="#523F70"/>
<path fill-rule="evenodd" clip-rule="evenodd" d="M91.2547 65.4071C91.2547 67.0441 89.9267 68.3721 88.2897 68.3721C86.6517 68.3721 85.3247 67.0441 85.3247 65.4071C85.3247 63.7701 86.6517 62.4421 88.2897 62.4421C89.9267 62.4421 91.2547 63.7701 91.2547 65.4071Z" stroke="#523F70"/>
<path fill-rule="evenodd" clip-rule="evenodd" d="M50.6511 22.5446C50.0944 22.5446 49.5707 22.6773 49.1084 22.9091C49.0575 19.638 46.2943 17 42.8881 17C40.096 17 37.7335 18.7718 36.944 21.2121C36.4185 20.9855 35.8374 20.8573 35.2246 20.8573C32.8915 20.8573 31 22.6799 31 24.9286C31 27.1415 32.8332 28.9385 35.1149 28.9947V29H50.4887V28.992C50.5428 28.9947 50.5965 29 50.6511 29C52.5004 29 54 27.5547 54 25.7723C54 23.9899 52.5004 22.5446 50.6511 22.5446Z" fill="#9D81CE"/>
<path d="M61.7087 52.539H67.2697" stroke="#523F70"/>
<path d="M28.4744 63.5302H79.0444" stroke="#523F70"/>
<path d="M2.88951 54.1747H9.82851C9.82851 54.1747 10.2865 56.7917 7.01651 56.7917H1.52051" stroke="#523F70"/>
<path d="M6.2312 54.371V56.857" stroke="#523F70"/>
<path d="M89.3906 48.9071H104.692" stroke="#523F70"/>
<path d="M104.691 52.3363H97.4361C97.4361 52.3363 96.7771 56.2933 101.261 56.2933H104.559" stroke="#523F70"/>
<path d="M101.525 52.6005V56.2935" stroke="#523F70"/>
<path d="M64.6062 36.5087V3.08569C64.6062 1.65769 65.7632 0.499695 67.1922 0.499695H91.2902C92.7172 0.499695 93.8762 1.65769 93.8762 3.08569V45.8737" stroke="#523F70"/>
<path d="M51.7009 36.9042V14.8252C51.7009 13.3972 52.8579 12.2392 54.2869 12.2392H64.4619" stroke="#523F70"/>
<path fill-rule="evenodd" clip-rule="evenodd" d="M85.3915 13.7577H82.3105C81.9955 13.7577 81.7415 13.5027 81.7415 13.1877V7.40173C81.7415 7.08673 81.9955 6.83173 82.3105 6.83173H85.3915C85.7055 6.83173 85.9615 7.08673 85.9615 7.40173V13.1877C85.9615 13.5027 85.7055 13.7577 85.3915 13.7577Z" fill="#9D81CE"/>
<path fill-rule="evenodd" clip-rule="evenodd" d="M85.3915 23.6737H82.3105C81.9955 23.6737 81.7415 23.4187 81.7415 23.1037V17.3177C81.7415 17.0027 81.9955 16.7477 82.3105 16.7477H85.3915C85.7055 16.7477 85.9615 17.0027 85.9615 17.3177V23.1037C85.9615 23.4187 85.7055 23.6737 85.3915 23.6737Z" fill="#9D81CE"/>
<path fill-rule="evenodd" clip-rule="evenodd" d="M85.3915 33.9862H82.3105C81.9955 33.9862 81.7415 33.7312 81.7415 33.4162V27.6302C81.7415 27.3152 81.9955 27.0602 82.3105 27.0602H85.3915C85.7055 27.0602 85.9615 27.3152 85.9615 27.6302V33.4162C85.9615 33.7312 85.7055 33.9862 85.3915 33.9862Z" fill="#9D81CE"/>
</svg>
