<svg width="100%" height="100%" viewBox="0 0 102 44" xmlns="http://www.w3.org/2000/svg">
<path fill-rule="evenodd" clip-rule="evenodd" d="M11.5465 0V2.28135H2.77116V8.01929C3.43096 7.95016 4.6186 7.88103 5.2784 7.88103C7.19182 7.88103 9.10524 8.29582 10.4908 9.3328C12.0084 10.3698 13.064 12.0289 13.064 14.5177C13.064 16.5225 12.4042 18.0434 11.3486 19.1495C9.69906 20.8778 6.9279 21.5 4.22272 21.5C2.37528 21.5 0.85774 21.3617 0 21.2235V0H11.5465ZM2.77116 19.1495C3.36498 19.2878 4.09076 19.2878 4.9485 19.2878C6.598 19.2878 8.2475 18.7347 9.2372 17.6286C9.897 16.8682 10.3589 15.8312 10.3589 14.5177C10.3589 12.8585 9.69906 11.7524 8.70936 11.0611C7.65368 10.3006 6.33408 10.0241 4.88252 10.0241C4.2887 10.0241 3.49694 10.0932 2.83714 10.1624V19.1495H2.77116ZM74.867 0H77.5786V13.8312L82.8727 7.80573H86.3591L80.8067 14.1051L86.4236 21.5H83.0664L77.5786 14.242V21.5H74.867V0ZM102 7.91429H99.0277V10.6762C98.4615 9.77857 97.6831 9.01905 96.6923 8.39762C95.7015 7.77619 94.7107 7.5 93.5784 7.5C91.8092 7.5 90.2523 8.19048 88.9077 9.64048C87.563 11.0905 86.9261 12.7476 86.9261 14.681C86.9261 16.6833 87.563 18.4095 88.9077 19.8595C90.1815 21.3095 91.8092 22 93.6492 22C95.7723 22 97.6123 20.9643 99.0277 18.8929V21.6548H102V7.91429ZM97.7538 11.5738C98.6738 12.4714 99.1692 13.5762 99.1692 14.819C99.1692 16.0619 98.6738 17.0976 97.7538 17.9952C96.8338 18.8929 95.7015 19.3762 94.4277 19.3762C93.1538 19.3762 92.0215 18.8929 91.1015 17.9952C90.1815 17.0976 89.7569 15.9929 89.7569 14.681C89.7569 13.5071 90.2523 12.4714 91.1723 11.5738C92.0923 10.6762 93.1538 10.2619 94.4277 10.2619C95.7015 10.2619 96.8338 10.6762 97.7538 11.5738ZM16.0788 7.84211V12.2895H16.1458V27H18.9596V19.6105H19.0266C19.8305 20.9105 21.3714 21.7316 23.1133 21.7316C26.1951 21.7316 29.1429 19.3368 29.1429 14.4105C29.1429 10.3053 26.731 7.5 23.5153 7.5C21.3044 7.5 19.7635 8.52632 18.7586 10.1684H18.6916V7.84211H16.0788ZM19.0266 16.9421L19.0266 16.9421C18.9596 16.6 18.8926 16.2579 18.8926 15.9158V13.5895C18.8926 13.2474 18.9596 12.9053 19.0266 12.5632L19.0266 12.5632C19.4956 10.7158 21.0365 9.48421 22.7113 9.48421C25.2571 9.48421 26.664 11.8105 26.664 14.5474C26.664 17.6947 25.1901 19.8158 22.6443 19.8158C20.9025 19.8158 19.4956 18.6526 19.0266 16.9421ZM62.0023 13.7261V8.5H59.2906V21.5H62.0023V15.6206H68.1357V21.5H70.8473V8.5H68.1357V13.7261H62.0023ZM36.6798 31.5V32.6441H33.1207V39H31.6552V31.5H36.6798ZM38.757 34.5325C38.757 33.4231 38.757 32.5355 38.6897 31.7219H39.9682L40.0355 33.2012C40.6412 32.1657 41.5833 31.5 42.8619 31.5C44.7461 31.5 46.2266 33.2751 46.2266 35.9379C46.2266 39.0444 44.477 40.5976 42.5927 40.5976C41.516 40.5976 40.6412 40.0799 40.1701 39.2663V44H38.757V34.5325ZM40.1701 36.8254C40.1701 37.0473 40.1701 37.2692 40.2374 37.4911C40.5066 38.6006 41.3814 39.3402 42.3908 39.3402C43.9386 39.3402 44.8134 37.9349 44.8134 35.9379C44.8134 34.1627 44.0059 32.6834 42.4581 32.6834C41.4487 32.6834 40.5739 33.4231 40.3047 34.6805C40.2374 34.9024 40.2374 35.1243 40.2374 35.3462V36.8254H40.1701ZM48.6836 31.5L50.4814 36.5872C50.6888 37.1686 50.8963 37.8227 51.0346 38.3314C51.1729 37.8227 51.3803 37.1687 51.5877 36.5146L51.5877 36.5145L53.1781 31.5H54.7685L52.5558 37.6047C51.5186 40.5116 50.758 42.0378 49.7899 42.9826C49.0985 43.6366 48.3379 43.9273 47.9921 44L47.6464 42.6919C47.9921 42.5465 48.4762 42.3285 48.9602 41.9651C49.3751 41.6017 49.8591 41.0203 50.2048 40.2209C50.274 40.0756 50.3431 39.9302 50.3431 39.8576C50.3431 39.7849 50.3431 39.6395 50.274 39.4215L47.2315 31.5H48.6836ZM62.3054 39V31.5H56.2759V39H57.5812V32.5805H61.0001V39H62.3054ZM71.3498 31.5V39H70.0444V32.5805H66.6256V39H65.3202V31.5H71.3498ZM32.1576 13C32.1576 5.86413 37.9797 0 45.2217 0C52.4637 0 58.2857 5.79348 58.2857 13C58.2857 15.1514 57.7565 17.1871 56.8188 18.9815L56.7237 19.0761L56.7947 18.7228L56.9367 18.4402L56.7237 18.7228L56.5817 18.9348L56.4397 19.1467L56.2977 19.3587L56.2267 19.6413L56.0847 19.712L55.9427 19.9239L55.8007 20.1359L55.7297 20.3478L55.6587 20.5598L55.3747 20.7717L55.2327 21.0543L55.0907 21.2663L54.8777 21.4076L54.5937 21.5489L54.3807 21.6902L54.1677 21.8315L53.9547 21.9728L53.7417 22.1141L53.5997 22.3261L53.4577 22.538V22.6793L53.3157 22.962L53.1027 23.1739L52.9607 23.4565L53.0182 23.4279C50.8454 25.0415 48.1496 26 45.2217 26C42.7977 26 40.5328 25.343 38.5921 24.2013L38.6897 24.2337L38.9027 24.3043L39.1867 24.0924L39.1157 23.8098L39.2577 23.5978L39.1867 23.4565L39.1157 23.2446L39.3287 23.1033L39.5417 23.0326L39.8257 22.962L39.9677 22.75L39.8257 22.4674L39.7547 22.1848L39.6837 21.9022L39.5417 21.6902L39.4707 21.4076L39.3287 21.125L39.5417 20.913L39.8257 20.7717L40.1097 20.7011L40.3227 20.4891L40.5357 20.2772L40.8197 20.1359L41.1037 20.0652L41.3167 19.9239L41.3877 19.6413L41.5297 19.4293L41.6717 19.2174L41.8847 19.0761V18.7935L41.7427 18.7228L41.6007 18.5109H41.3167L41.0327 18.5815H40.7487H40.4647L40.1807 18.3696L40.2517 18.1576L40.5357 18.2283L40.8197 18.1576L41.1037 18.087L41.3877 18.0163H41.6717L41.9557 17.9457L42.1687 17.8043L42.3817 17.663L42.8077 17.7337L43.0207 17.663L43.2337 17.5924L43.3757 17.3804L43.5177 17.1685L43.7307 16.9565L43.8727 16.7446L43.7307 16.5326L43.6597 16.3207L43.4467 16.1087L43.3047 15.8261H43.5887L43.8017 15.9674L44.0147 16.038L44.2277 16.1793L44.4407 16.1087L44.7247 16.038H45.0087H45.2927L45.3637 16.1087L45.5767 16.25L45.7897 16.3207L45.9317 16.5326L46.1447 16.7446L46.3577 16.9565L46.5707 16.8859L46.7127 17.0272L46.8547 17.1685L46.7837 17.4511V17.7337V18.0163L46.9257 18.1576L47.1387 18.2989V18.5815L47.2807 18.7935L47.4227 19.0054L47.5647 19.2174L47.7777 19.288L47.9197 19.4293L48.1327 19.2174L48.3457 19.0761L48.4877 18.8641L48.6297 18.6522V18.3696V18.087V17.8043L48.7717 17.5924L48.9847 17.3804L49.1977 17.2391L49.4817 17.1685L49.6947 16.8152L49.9787 16.6739L50.1207 16.462L50.4047 16.3207L50.6887 16.1793L51.0437 16.25L51.2567 16.3913L51.3987 16.6033L51.5407 16.8152L51.6827 17.0272H51.9667L52.2507 17.0978L52.3927 17.3098V17.5924L52.3217 17.875L52.2507 18.1576L52.3217 18.4402L52.3927 18.7228L52.6057 18.8641L52.6767 19.1467L52.7477 19.4293L52.5347 19.288L52.2507 19.1467H52.0377H51.7537L51.6827 19.288L51.9667 19.5L52.2507 19.5707L52.1797 19.7826L52.4637 19.9239L52.5347 20.1359L52.6057 20.3478L52.8187 20.4185L53.1027 20.4891H53.3157L53.4577 20.2772L53.5997 20.0652L53.4577 19.7826L53.1737 19.6413L52.9607 19.4293L53.1027 19.288L53.2447 19.1467L53.1737 18.8641L53.0317 18.6522L52.8897 18.4402L52.6767 18.3696L52.4637 18.2283L52.3927 17.9457L52.4637 17.663L52.6767 17.4511L52.8897 17.5924L53.1737 17.7337L53.4577 17.8043L53.6707 17.5924L53.8127 17.3098L53.9547 17.0978L54.0257 16.8152V16.6033L53.9547 16.3913L53.8837 16.1793L53.5997 15.9674L53.3157 15.8261V15.5435L53.3867 15.3315L53.4577 15.0489L53.8127 15.1196L54.0257 14.9076L54.1677 14.6957L54.3097 14.4837L54.5227 14.2717L54.5937 13.9891L54.7357 13.7772L54.8067 13.4946L54.8777 13.212V12.9293V12.6467V12.3641V12.0815L54.7357 11.8696L54.5227 11.7283L54.5937 11.6576L54.5227 11.4457L54.4517 11.2337L54.5227 11.0217L54.2387 10.9511L53.9547 11.0217L54.0257 10.7391L54.2387 10.6685L54.4517 10.5272L54.6647 10.5978H54.8067L54.9487 10.8804L55.1617 11.0924L55.3747 10.8098L55.3037 10.5272L55.2327 10.2446L55.0907 10.0326L54.9487 9.82065V9.67935V9.39674L54.8067 9.18478V8.90217L54.9487 8.83152V8.54891L54.8777 8.2663V7.9837L54.7357 7.63043L54.6647 7.41848L54.5227 7.20652L54.3807 6.99457L54.3097 6.71196L54.5227 6.85326L54.6647 7.06522L54.8067 7.27717L55.0197 7.41848L54.9487 7.20652L54.8067 7.06522L54.6647 6.85326L54.5227 6.6413L54.3097 6.5L54.1677 6.28804L53.9547 6.21739V6.42935L53.6707 6.3587L53.5997 6.57065L53.4577 6.3587L53.3157 6.14674L53.2447 5.86413L53.1737 5.58152V5.29891L53.1027 5.0163V4.7337L53.2447 4.66304L53.1027 4.45109L52.9607 4.23913V4.02717L52.8187 3.74457L53.0317 3.88587L53.1737 4.09783L53.3157 4.30978L53.4577 4.52174L53.6707 4.7337L53.8837 4.94565L54.2387 5.08696L54.5937 5.22826L54.3807 5.0163L54.1677 4.80435L53.8837 4.52174L53.6707 4.30978L53.4577 4.09783L53.3157 3.88587L53.1027 3.74457L52.9607 3.60326L52.8187 3.3913L52.6767 3.17935L52.4637 2.96739L52.2507 2.68478L52.1087 2.47283L51.8247 2.40217L51.5407 2.26087L51.3277 2.04891L51.1147 1.90761L51.0437 1.7663L50.9727 2.04891L51.0437 2.33152L51.1857 2.54348L51.3987 2.75543L51.2567 3.03804L51.1147 3.1087L51.1857 3.25L51.0437 3.32065L51.1147 3.46196L50.9017 3.53261L50.7597 3.67391L50.8307 3.74457L50.6887 3.95652L50.6177 4.23913L50.5467 4.52174H50.2627L49.9787 4.59239L49.7657 4.7337L49.5527 4.875H49.4107L49.2687 5.08696L49.0557 5.22826L48.9847 5.0163L48.9137 4.80435H48.7007H48.4877L48.2747 4.875L48.0617 5.22826L47.7777 5.29891H47.4227L47.2807 5.44022L46.9967 5.58152L46.9257 5.79348L46.7837 6.00543H46.7127L46.8547 6.21739H46.5707L46.2867 6.28804L46.0027 6.21739V6.42935V6.6413L45.8607 6.28804L45.7187 6.00543L45.5057 6.28804L45.4347 6.57065L45.3637 6.85326H45.1507L44.8667 6.71196H44.6537L44.4407 6.78261H44.1567L43.9437 6.85326H43.6597H43.3757L43.0207 6.92391L42.7367 6.71196L42.5237 7.06522H42.3107L42.0977 7.13587L41.8847 7.27717H41.6007L41.4587 7.06522L41.3877 6.85326L41.5297 6.71196L41.7427 6.85326L42.0267 6.92391H42.3107V6.6413L42.0977 6.5L41.9557 6.28804L41.7427 6.14674L41.6007 6.07609L41.4587 5.79348L41.2457 5.72283H40.9617H40.7487L40.5357 5.79348H40.3227L39.9677 5.93478H39.6837L39.3997 6.00543L39.1157 6.14674H38.8317H38.5477L38.3347 6.3587L38.1217 6.57065V6.71196L38.3347 6.99457L38.2637 7.20652L38.1927 7.41848V7.63043L38.4057 7.77174L38.6897 7.63043L38.9737 7.48913L39.1867 7.27717H39.2577V7.06522L39.3287 6.78261L39.5417 6.6413L39.7547 6.5L40.0387 6.42935H40.2517L40.1807 6.78261L39.9677 6.85326L39.7547 6.92391L39.6127 7.27717L39.6837 7.48913L39.6127 7.70109L39.4707 7.91304L39.2577 7.84239L39.1157 7.9837L38.9737 8.19565L38.6897 8.125H38.3347L38.1217 7.9837L37.9797 7.84239L37.8377 7.70109L38.0507 7.63043V7.34783L38.1927 7.06522L37.9797 7.20652L37.7667 7.41848L37.5536 7.63043L37.4117 7.48913L37.1987 7.55978L36.9856 7.48913L36.7726 7.55978L36.5596 7.70109H36.2756L36.1336 7.63043H35.9206L35.8496 7.91304L35.7786 8.125L35.6366 8.33696L35.4236 8.47826L35.2106 8.33696L34.9976 8.05435L34.7846 8.2663L34.5716 8.47826L34.4296 8.69022L34.3586 8.90217L34.2876 9.11413L34.3586 9.39674L34.4296 9.67935L34.6426 9.75H34.8556L35.0686 9.6087L35.2816 9.39674H35.4946L35.8496 9.25543L36.0626 9.39674L36.2756 9.46739L36.4886 9.53804V9.75L36.5596 10.0326L36.6306 10.3152L36.7726 10.5272L36.9146 10.8098L36.6306 11.0217V11.3043L36.8436 11.163L36.9856 10.9511L37.0566 11.0924V10.8098L36.9856 10.5978L36.9146 10.3859L36.7726 10.1033L36.8436 9.75L37.0566 9.96196L37.1276 10.2446L37.2696 10.5272L37.3406 10.8804L37.1276 11.0217L37.1987 11.2337L37.2696 11.4457L37.1987 11.7283V12.0815L37.4117 12.1522L37.4827 12.0815L37.6246 12.1522L37.5536 11.8696L37.6957 11.9402V11.6576V11.375L37.9087 11.2337L38.1217 11.4457L38.4057 11.5163L38.2637 11.6576L38.1927 11.9402V12.2228V12.5054L38.4057 12.5761L38.6187 12.6467L38.8317 12.7174L39.0447 12.8587H39.3287V13.1413L39.2577 13.4239L39.0447 13.5652L38.9027 13.7772L38.6897 13.7065L38.3347 13.6359H38.0507L37.8377 13.4946L37.6246 13.3533L37.4117 13.0707L37.1987 12.8587L36.9856 12.7174H36.7726L36.5596 13L36.4176 12.788L36.2756 12.5761L36.0626 12.3641L35.9916 12.0815L35.7786 11.9402L35.6366 11.6576L35.7076 11.375L35.7786 11.0924V10.8098L35.5656 10.6685L35.3526 10.5272L35.1396 10.3152L34.9266 10.1033L34.6426 10.0326H34.4296L34.3586 9.67935L34.0746 9.82065H33.7196L33.5776 10.0326L33.3646 10.2446H33.0806L32.8676 10.4565L32.7256 10.7391L32.6546 11.0217L32.5836 11.3043L32.4416 11.6576L32.3706 11.8696L32.2996 12.1522V12.3641V12.6467V12.9293L32.3706 13.212V13.4946L32.2996 13.7772V14.0598V14.3424L32.3706 14.625L32.4416 14.9076L32.5126 15.1902L32.6546 15.4728L32.8676 15.6848L33.0096 15.9674L33.2226 16.1793L33.5066 16.25L33.6486 16.462L33.7196 16.6739L33.8616 16.8859L34.0746 17.0978L34.2166 17.3098L34.2876 17.5924V17.875L34.2166 18.0163L34.2876 18.2989L34.4296 18.5815L34.5006 18.8641L34.6426 19.0761L34.7136 19.3587L34.8556 19.5707L34.9976 19.7826L35.1396 19.9946V20.2065V20.4185L35.0686 20.5598L35.2106 20.8424V21.125L35.4236 21.337L35.6366 21.4783L35.7786 21.6902L35.9206 21.9022L36.0626 22.1141L36.2046 22.3261L36.3394 22.5272C33.7643 20.1462 32.1576 16.7486 32.1576 13ZM40.0387 1.27174L39.8257 1.34239L39.6127 1.4837L39.8967 1.41304L40.1807 1.27174L40.4647 1.20109L40.8197 1.13043L41.1747 0.98913L41.3877 0.918478H41.6007L41.8847 0.847826L42.1687 0.777174L42.4527 0.706522L42.2397 0.847826L42.3107 0.918478L42.1687 1.05978L42.3817 1.27174L42.6657 1.13043L42.9497 1.05978L43.2337 0.847826L43.5177 0.777174L43.7307 0.565217H43.3757L43.0917 0.63587L43.2337 0.706522L43.0207 0.777174L42.9497 0.63587L43.0207 0.565217H42.8077L43.0207 0.494565H43.3047L43.5887 0.353261H43.6597H43.7307H43.8727L44.0857 0.282609H43.8017L43.9437 0.211957L43.6597 0.282609L43.3047 0.353261L43.0207 0.423913L42.7367 0.494565H42.5237H42.3107L42.5947 0.423913H42.8787L43.0917 0.353261L43.3047 0.282609L43.5887 0.211957L43.8727 0.141304H44.0857H44.3697H44.6537H44.7957H44.8667L45.1507 0.0706522L45.4347 0.141304H45.5057H45.7897L45.8607 0.211957H45.7897H45.7187H45.5767H45.5057L45.7187 0.282609H45.5057L45.2217 0.353261H45.5057L45.7897 0.282609H46.0027L46.2157 0.353261H46.4287L46.7127 0.423913H46.9967L47.2097 0.353261H47.4937L47.7777 0.423913L47.9907 0.494565L48.2747 0.565217L48.5587 0.706522L48.7717 0.847826L48.9847 0.918478L49.2687 1.05978L49.4817 1.13043L49.6947 1.20109L49.9077 1.34239H50.1917L50.4757 1.41304L50.7597 1.55435L50.4757 1.34239L50.7597 1.41304L50.9727 1.55435L51.1857 1.69565L51.1147 1.55435L50.8307 1.41304L50.6177 1.27174L50.4047 1.20109L50.1207 1.05978L49.8367 0.98913L49.6237 0.847826L49.4107 0.777174L49.1977 0.706522L48.9137 0.63587L48.7007 0.494565L48.4167 0.423913H48.1327L47.8487 0.353261H47.5647L47.2807 0.282609H46.9967L46.7127 0.211957L46.5707 0.0706522H46.2867H46.0027H45.7187H45.4347H45.1507H44.8667H44.5827H44.2987H44.0147L43.7307 0.141304H43.4467L43.1627 0.211957H42.8787L42.5947 0.282609V0.353261H42.3107L42.0977 0.423913H42.0267L41.8137 0.494565L41.5297 0.565217L41.3167 0.63587H41.5297L41.7427 0.565217L41.4587 0.706522H41.6007L41.3167 0.777174L41.0327 0.918478H40.8907H40.6067L40.8197 0.777174L40.6067 0.847826L40.3937 0.918478L40.1097 1.05978L39.8967 1.13043L39.6837 1.27174L39.4707 1.4837L39.7547 1.34239L40.0387 1.27174ZM42.3107 0.494565L42.0267 0.565217L42.2397 0.494565H42.3107ZM38.0038 2.21355L37.9087 2.26087L37.8546 2.31465C37.7543 2.38494 37.654 2.46029 37.5536 2.54348L37.6957 2.47283L37.8546 2.31465C37.9043 2.27982 37.954 2.24623 38.0038 2.21355ZM38.8317 1.69565H38.9027ZM38.9027 1.69565L39.1157 1.55435ZM39.1157 1.55435L38.9737 1.7663ZM38.9737 1.7663L38.6897 1.83696ZM38.6897 1.83696L38.4057 1.97826ZM38.4057 1.97826L38.1927 2.11957ZM38.1927 2.11957L38.0038 2.21355ZM45.0797 0.141304L44.7957 0.211957H44.9377L45.2217 0.141304H45.0797ZM36.5596 6.92391L36.7726 6.78261L36.8436 6.57065L37.0566 6.3587V6.14674L37.2696 6.07609L37.4827 6.00543L37.4117 6.14674L37.2696 6.3587L37.0566 6.57065L36.9146 6.85326L36.8436 7.13587L36.7016 7.41848L36.4176 7.48913H36.1336V7.27717L36.3466 7.06522L36.5596 6.92391ZM36.4886 6.6413L36.2756 6.71196L36.1336 6.85326V6.6413L36.3466 6.5L36.5596 6.3587L36.7726 6.28804L36.7016 6.5L36.4886 6.6413ZM56.0847 17.7337L55.9782 17.7867L56.0137 17.7337L56.1557 17.4511L56.0847 17.7337ZM55.5025 18.3554L55.4457 18.5815L55.3747 18.8641L55.4457 19.0761L55.6587 19.0054L55.8007 18.7935L55.8717 18.5109V18.2283L55.7297 18.1576L55.8717 17.9457L55.9782 17.7867L55.8007 17.875L55.6587 18.087L55.5877 18.1929V17.9457L55.5167 17.7337L55.6587 17.5924L55.7297 17.3804L55.5167 17.2391H55.3037L55.2327 17.5217L55.0907 17.7337L54.9487 17.9457L54.7357 18.2283L54.5937 18.4402L54.3807 18.5815L54.2387 18.7228L54.0967 18.9348L54.0257 19.1467L54.1677 19.3587L54.4517 19.4293L54.7357 19.3587H55.0197L55.0907 19.1467L55.2327 18.9348L55.3037 18.6522L55.4457 18.4402L55.5025 18.3554ZM55.5025 18.3554L55.5167 18.2989L55.5877 18.1929V18.2283L55.5025 18.3554ZM47.0677 4.45109L47.2807 4.38043L47.4227 4.52174L47.5647 4.7337H47.3517H47.0677V4.45109ZM44.5827 5.79348L44.7957 5.72283L45.0087 5.58152H45.2927V5.44022L45.0087 5.36957L44.7247 5.44022L44.5117 5.58152L44.2277 5.65217L44.0147 5.79348L43.9437 6.00543L43.8727 6.28804L44.0857 6.3587L44.2277 6.5L44.2987 6.3587L44.2277 6.14674L44.4407 5.93478L44.5827 5.79348ZM37.8377 4.02717L37.6957 4.23913V4.45109H37.9087H38.1217L38.2637 4.09783L38.0507 3.88587L37.8377 4.02717ZM38.4767 2.26087L38.6897 2.11957H38.9027L39.1157 1.97826L39.3997 1.90761L39.4707 1.97826L39.6837 1.83696L39.8967 1.7663L39.9677 1.69565L40.2517 1.55435L40.4647 1.41304L40.6777 1.34239L40.8907 1.27174L41.1037 1.20109L41.1747 1.13043L41.3877 1.05978L41.6007 0.98913H41.8137H42.0267L41.8847 1.05978V1.27174L41.7427 1.41304L41.9557 1.4837L41.8137 1.7663V1.83696L41.8847 1.90761L41.6007 2.19022V2.47283H41.3167V2.68478V2.89674H41.1037H40.8197L40.5357 2.82609V2.89674L40.3227 2.96739L40.1097 3.03804L39.8257 3.17935L39.5417 3.25H39.3287L39.1157 3.3913L38.9027 3.46196H38.6897L38.6187 3.25L38.4767 3.03804L38.1927 2.96739L38.2637 2.82609H38.0507L37.8377 2.96739L37.6246 3.03804L37.7667 2.75543L38.0507 2.54348L38.2637 2.40217L38.4767 2.26087ZM42.0977 4.23913V4.02717L41.8847 3.95652L41.6007 4.02717L41.4587 4.23913L41.3877 4.45109H41.7427L42.0267 4.30978L42.0977 4.38043L42.4527 4.30978L42.2397 4.09783L42.0977 4.23913ZM47.9907 4.66304L47.6357 4.52174L47.7067 4.7337L47.9907 4.66304ZM55.7297 19.3587L55.6587 19.5707L55.5167 19.7826L55.3747 19.9239L55.4457 19.712L55.5877 19.5L55.7297 19.3587ZM56.2267 16.5326L56.4397 16.6033L56.5107 16.3207V16.038V15.8261H56.4397L56.2977 16.1087L56.2267 16.3913L56.0137 16.6033L56.2267 16.5326ZM57.1497 16.8859L57.3627 17.0272L57.4337 16.7446L57.5757 16.462L57.7177 16.1793L57.7887 16.1087L57.7177 16.3913V16.462C57.7177 16.4973 57.7 16.5502 57.6822 16.6032L57.6822 16.6033C57.6645 16.6563 57.6467 16.7092 57.6467 16.7446L57.5757 16.8859L57.5047 17.1685L57.3627 17.4511H57.2917V17.3098L57.0077 17.5217L56.9367 17.3098L57.0077 17.0978L57.1497 16.8859ZM55.3037 7.9837L55.4457 8.19565L55.5167 7.9837V7.77174V7.55978L55.3037 7.41848H55.0907L55.2327 7.63043L55.3037 7.9837ZM48.4167 19.0761L48.6297 19.0054L48.7717 19.2174V19.5L48.7007 19.712L48.4167 19.7826V19.712L48.2747 19.5V19.288L48.4167 19.0761ZM55.3037 13.2826L55.2327 13.5652L55.3037 13.8478H55.3747L55.4457 13.5652L55.3747 13.2826H55.3037ZM53.8127 15.6141L53.9547 15.4022L54.1677 15.3315V15.5435L54.0967 15.7554L53.8127 15.6141ZM53.8837 20.2772H53.5997L53.3867 20.4891H53.5997H53.8127L54.0257 20.4185L54.3097 20.3478L54.5937 20.2065L54.8067 19.9946H54.4517L54.1677 20.2065L53.8837 20.2772ZM55.9427 9.25543L55.8717 8.97283L55.7297 8.61957L55.6587 8.33696L55.7297 8.2663L55.8717 8.54891L55.9427 8.83152V9.04348L56.0137 9.32609V9.6087V9.82065L56.0847 10.0326V10.3152L55.9427 10.4565L55.6587 10.5272L55.7297 10.2446L55.8007 10.0326L55.9427 9.82065V9.53804V9.25543ZM56.0847 15.8261H56.0137V16.038L56.1557 16.1087L56.0847 15.8261ZM55.6587 16.3207L55.5167 16.5326L55.3747 16.7446L55.4457 16.462L55.6587 16.3207ZM55.5167 15.4728L55.8007 15.6141L56.1557 15.4728L56.0137 15.1902L55.8717 14.9076L55.9427 14.6957L55.8717 14.4837L55.6587 14.5543L55.5877 14.837L55.5167 15.1902V15.4728ZM55.6587 10.5978H55.8717L55.8007 10.9511L55.5877 10.8804L55.6587 10.5978ZM56.5817 17.875L56.7237 17.7337L56.7947 17.5217L56.5817 17.7337V17.875ZM36.2046 9.82065H36.1336L36.2046 9.67935V9.82065ZM36.2756 11.163L36.3466 11.375L36.5596 11.163L36.4886 10.9511L36.2756 11.0217L36.2046 10.8804L36.1336 11.0217L36.2756 11.163ZM37.6246 12.5054V12.3641L37.7667 12.5054H37.6246ZM36.0626 10.0326L35.9206 10.1033V10.3152V10.5272L36.0626 10.3152V10.0326ZM50.1917 3.81522L49.8367 3.67391L49.9077 3.53261H50.1917V3.81522ZM42.8077 16.038L42.5947 15.9674H42.3107L42.1687 15.7554L42.0267 15.5435L41.8847 15.3315L41.7427 15.1196L41.6007 14.9076L41.7427 14.837L41.9557 14.7663L42.0267 14.9783L42.0977 15.1902L42.2397 15.3315L42.3817 15.5435H42.6657L42.9497 15.6141L42.8077 16.038ZM42.1687 11.375L42.0977 11.587V11.8696L42.1687 12.1522L42.2397 12.4348L42.0267 12.5761L42.0977 12.8587L42.2397 13.1413L42.5237 13.212L42.7367 13.1413V12.9293L42.6657 12.7174L42.5947 12.5054L42.5237 12.2935L42.4527 12.0815V11.8696V11.6576L42.6657 11.5163L42.8787 11.3043L42.6657 11.375L42.4527 11.3043L42.1687 11.375ZM40.6777 11.9402H40.3227L40.1097 11.7989L39.8257 11.7283L39.6127 11.6576L39.3997 11.587L39.1157 11.5163L38.8317 11.4457H38.5477L38.7607 11.3043L38.9027 11.0924L38.9737 10.8804L39.1157 10.6685H39.3287L39.4707 10.7391L39.5417 10.9511L39.6127 11.163L39.4707 11.2337L39.6837 11.4457L40.0387 11.3043L39.7547 11.163L39.9677 11.0217L40.2517 10.9511L40.4647 10.8804L40.3937 11.0924L40.1807 11.2337L40.3227 11.4457L40.4647 11.587L40.6067 11.7989L40.6777 11.9402ZM39.6127 17.2391L39.7547 17.5924L40.1807 17.9457L40.1097 17.7337V17.4511V17.1685L39.9677 16.8152L39.8257 16.6033L39.6837 16.3913L39.5417 16.1793L39.3997 15.9674L39.3287 15.6848L39.2577 15.4022V15.1196L39.1157 14.9076L38.9027 14.7663L38.6897 14.6957L38.7607 14.9076V15.1196L38.8317 15.4022L38.9027 15.6141L38.9737 15.8261L39.1867 15.8967L39.3287 16.1087L39.1867 16.3207L39.1157 16.6033L39.2577 16.8152L39.3997 17.0272L39.6127 17.2391ZM38.0507 20.2772L37.8377 19.9946L37.9797 20.0652V19.9946L38.1217 20.1359L38.0507 20.2772ZM57.2917 17.8043L57.1497 18.0163V17.9457L57.2917 17.8043ZM57.2917 17.8043L57.3627 17.5924H57.4337L57.2917 17.8043ZM57.1497 18.0163L57.0077 18.2283L56.9367 18.5109L56.8657 18.7228L56.9367 18.5815L57.1497 18.1576V18.0163ZM41.5297 22.6793H41.7427L41.8137 22.962L42.0267 23.1739L41.9557 23.3859V23.6685L41.7427 23.8098L41.6007 23.9511L41.7427 24.0217L41.6007 24.163L41.3167 24.2337L41.0327 24.163L40.8197 24.0217L40.6777 23.8804V23.5978H40.8197L40.6777 23.3152L40.8907 23.0326H41.1747L41.3877 22.8913L41.5297 22.6793Z" fill="white"/>
</svg>
