<svg width="19" height="23" viewBox="0 0 19 23" xmlns="http://www.w3.org/2000/svg">
<path d="M13.9316 14.6859H15.4396C15.4396 14.6859 16.0856 14.7339 16.7676 14.2269C17.6086 13.6029 18.0886 11.2009 18.0886 11.2009C18.3766 9.0629 16.4126 9.2399 16.4126 9.2399H0.899629C0.899629 9.2399 0.481629 9.1709 0.500629 9.6609L1.06263 16.0639C1.06263 16.0639 1.60663 20.1269 5.67063 20.1269H9.64263C9.64263 20.1269 13.0536 19.8919 13.7066 16.4819L14.4136 9.2619" stroke-linecap="round"/>
<path d="M3.20312 11.5659L3.51212 15.7379C3.51212 15.7379 3.49412 17.6429 5.74312 17.6429" stroke-linecap="round"/>
<path d="M4.01981 0.500244C4.01981 0.500244 5.54381 1.91524 4.38281 3.83824C3.25481 5.70624 4.69081 7.04824 4.69081 7.04824" stroke-linecap="round"/>
<path d="M6.74095 0.500244C6.74095 0.500244 8.26395 1.91524 7.10395 3.83824C5.97495 5.70624 7.41195 7.04824 7.41195 7.04824" stroke-linecap="round"/>
<path d="M9.46122 0.500244C9.46122 0.500244 10.9852 1.91524 9.82422 3.83824C8.69622 5.70624 10.1322 7.04824 10.1322 7.04824" stroke-linecap="round"/>
<path d="M2.02734 22.2571H12.5853" stroke-linecap="round"/>
</svg>
