<?xml version="1.0" encoding="utf-8"?>
<!-- Generator: Adobe Illustrator 23.0.2, SVG Export Plug-In . SVG Version: 6.00 Build 0)  -->
<svg version="1.1" id="Layer_1" xmlns="http://www.w3.org/2000/svg" xmlns:xlink="http://www.w3.org/1999/xlink" x="0px" y="0px"
	 viewBox="0 0 23 23" style="enable-background:new 0 0 23 23;" xml:space="preserve">
<style type="text/css">
	.st0{opacity:0.4;fill-rule:evenodd;clip-rule:evenodd;fill:#8F95AB;enable-background:new    ;}
	.st1{fill-rule:evenodd;clip-rule:evenodd;fill:#8F95AB;}
</style>
<g>
	<path class="st0" d="M16.5,7.8c1.9,0,3.5,1.6,3.5,3.5c0,1.9-1.6,3.5-3.5,3.5c-1.9,0-3.5-1.6-3.5-3.5C13,9.3,14.6,7.8,16.5,7.8"/>
	<path class="st0" d="M8.2,3c2.5,0,4.5,2,4.5,4.5c0,2.5-2,4.5-4.5,4.5c-2.5,0-4.5-2-4.5-4.5C3.7,5,5.7,3,8.2,3"/>
	<path class="st1" d="M16.4,20c0-2.8-2.1-5-4.6-5H4.7C2.1,15,0,17.2,0,20H16.4z"/>
	<path class="st1" d="M18.3,20L18.3,20H23c0-2.2-1.6-4-3.5-4h-2.3C17.9,17.2,18.3,18.5,18.3,20"/>
</g>
</svg>
