<?xml version="1.0" encoding="utf-8"?>
<!-- Generator: Adobe Illustrator 23.0.2, SVG Export Plug-In . SVG Version: 6.00 Build 0)  -->
<svg version="1.1" id="Layer_1" xmlns="http://www.w3.org/2000/svg" xmlns:xlink="http://www.w3.org/1999/xlink" x="0px" y="0px"
	 viewBox="0 0 23 23" style="enable-background:new 0 0 23 23;" xml:space="preserve">
<style type="text/css">
	.st0{opacity:0.4;fill-rule:evenodd;clip-rule:evenodd;fill:#FFFFFF;}
	.st1{fill-rule:evenodd;clip-rule:evenodd;fill:#656B7F;}
</style>
<g>
	<path class="st0" d="M17.8,9.4h-1.4V5.9c0-2.7-2.2-4.9-4.9-4.9C8.8,1,6.6,3.2,6.6,5.9v3.5H5.2c-1,0-1.8,0.8-1.8,1.8v9.1
		c0,1,0.8,1.8,1.8,1.8h12.6c1,0,1.8-0.8,1.8-1.8v-9.1C19.6,10.2,18.8,9.4,17.8,9.4z M14.4,9.4H8.6V5.9C8.6,4.3,9.9,3,11.5,3
		s2.9,1.3,2.9,2.9V9.4z"/>
	<path class="st1" d="M12.9,18.3c0,0.4-0.3,0.7-0.7,0.7h-1.4c-0.4,0-0.7-0.3-0.7-0.7l0.4-2.3c-0.5-0.3-0.8-0.9-0.8-1.5
		c0-1,0.8-1.8,1.8-1.8c1,0,1.8,0.8,1.8,1.8c0,0.6-0.3,1.2-0.8,1.5C12.5,15.9,12.7,17,12.9,18.3"/>
</g>
</svg>
