<svg width="19" height="19" viewBox="0 0 19 19" fill="none" xmlns="http://www.w3.org/2000/svg">
<path fill-rule="evenodd" clip-rule="evenodd" d="M10.5058 17H3.49417C2.66917 17 2 16.3984 2 15.6552V6.3448C2 5.6024 2.66917 5 3.49417 5H10.5058C11.3308 5 12 5.6024 12 6.3448V15.6552C12 16.3984 11.3308 17 10.5058 17" fill="#DEE2F3"/>
<path fill-rule="evenodd" clip-rule="evenodd" d="M14.5062 1H7.49459C6.66988 1 6 1.60205 6 2.34454V3.64575H10.753C12.1301 3.64575 13.2504 4.68403 13.2504 5.95985V13H14.5062C15.3317 13 16 12.3987 16 11.6562V2.34454C16 1.60205 15.3317 1 14.5062 1" fill="#ADB4D0"/>
</svg>
