<?xml version="1.0" encoding="utf-8"?>
<!-- Generator: Adobe Illustrator 23.0.2, SVG Export Plug-In . SVG Version: 6.00 Build 0)  -->
<svg version="1.1" id="Layer_1" xmlns="http://www.w3.org/2000/svg" xmlns:xlink="http://www.w3.org/1999/xlink" x="0px" y="0px"
	 viewBox="0 0 23 23" style="enable-background:new 0 0 23 23;" xml:space="preserve">
<style type="text/css">
	.st0{opacity:0.4;fill-rule:evenodd;clip-rule:evenodd;fill:#8F95AC;}
	.st1{fill-rule:evenodd;clip-rule:evenodd;fill:#8F95AC;}
</style>
<g>
	<path class="st0" d="M12.9,20.4H5.1c-0.9,0-1.6-0.7-1.6-1.5V8.9c0-0.8,0.7-1.5,1.6-1.5h7.7c0.9,0,1.6,0.7,1.6,1.5v10.1
		C14.5,19.8,13.8,20.4,12.9,20.4"/>
	<path class="st1" d="M17.7,2.6H9.3c-1,0-1.8,0.7-1.8,1.6v1.5h5.7c1.7,0,3,1.2,3,2.7v8.2h1.5c1,0,1.8-0.7,1.8-1.6V4.2
		C19.5,3.3,18.7,2.6,17.7,2.6"/>
</g>
</svg>
