<svg width="11" height="15" viewBox="0 0 11 15" fill="none" xmlns="http://www.w3.org/2000/svg">
<path d="M9.76659 3.89258V12.8146C9.76659 13.2816 9.38759 13.6606 8.91959 13.6606H1.92559C1.45759 13.6606 1.07959 13.2816 1.07959 12.8146V3.89258"/>
<path fill-rule="evenodd" clip-rule="evenodd" d="M9.80651 3.98243H1.03951C0.741512 3.98243 0.499512 3.74043 0.499512 3.44243V2.42743C0.499512 2.12943 0.741512 1.88843 1.03951 1.88843H9.80651C10.1045 1.88843 10.3455 2.12943 10.3455 2.42743V3.44243C10.3455 3.74043 10.1045 3.98243 9.80651 3.98243Z"/>
<path d="M7.419 1.877V1.148C7.419 0.79 7.129 0.5 6.771 0.5H4.075C3.717 0.5 3.427 0.79 3.427 1.148V1.849"/>
<path d="M3.16895 5.8291V11.8231"/>
<path d="M5.42285 5.8291V11.8231"/>
<path d="M7.67725 5.8291V11.8231"/>
</svg>
