<svg width="20" height="20" viewBox="0 0 20 20" fill="none" xmlns="http://www.w3.org/2000/svg">
<path fill-rule="evenodd" clip-rule="evenodd" d="M11.5795 2.08612H8.29345C8.09845 2.08612 7.93945 1.92712 7.93945 1.73212V0.354122C7.93945 0.158122 8.09845 0.00012207 8.29345 0.00012207H11.5795C11.7745 0.00012207 11.9335 0.158122 11.9335 0.354122V1.73212C11.9335 1.92712 11.7745 2.08612 11.5795 2.08612" fill="#8F95AC"/>
<path fill-rule="evenodd" clip-rule="evenodd" d="M12.7768 18.3517H7.0958C6.2338 18.3517 5.5338 17.6527 5.5338 16.7897L3.7998 2.74672C3.7998 1.88272 4.4998 1.18372 5.3618 1.18372H14.5108C15.3738 1.18372 16.0738 1.88272 16.0738 2.74672L14.3388 16.7897C14.3388 17.6527 13.6398 18.3517 12.7768 18.3517" fill="#8F95AC" fill-opacity="0.4"/>
<path fill-rule="evenodd" clip-rule="evenodd" d="M16.3022 4.48841H3.57118C3.25518 4.48841 3.00018 4.23241 3.00018 3.91741V1.75541C3.00018 1.43941 3.25518 1.18341 3.57118 1.18341H16.3022C16.6172 1.18341 16.8732 1.43941 16.8732 1.75541V3.91741C16.8732 4.23241 16.6172 4.48841 16.3022 4.48841" fill="#8F95AC"/>
</svg>
