<svg width="20" height="20" viewBox="0 0 20 20" fill="none" xmlns="http://www.w3.org/2000/svg">
<path fill-rule="evenodd" clip-rule="evenodd" d="M2.00293 18.0002C2.00293 18.0002 2.53093 12.9107 3.42007 12.0215L12.3984 3.04399C12.9195 2.52285 13.7645 2.52285 14.2856 3.04399L16.9591 5.71752C17.4795 6.2379 17.4795 7.08361 16.9591 7.60399L7.9816 16.5823C7.05969 17.5049 2.00293 18.0002 2.00293 18.0002Z" fill="#8F95AC" fill-opacity="0.4"/>
<path fill-rule="evenodd" clip-rule="evenodd" d="M2.32438 15.663C2.32438 15.663 2.23138 16.2053 2.15113 16.7805C2.07013 17.3565 1.99963 17.997 1.99963 17.997C1.99963 17.997 2.66038 17.9265 3.17863 17.8545C3.69613 17.7825 4.34038 17.679 4.34038 17.679L2.32438 15.663Z" fill="#8F95AC"/>
<path fill-rule="evenodd" clip-rule="evenodd" d="M15.3999 9.37606L10.6271 4.60326L12.3127 2.91846C12.7647 2.46566 13.4975 2.46566 13.9495 2.91846L17.0847 6.05446C17.5367 6.50566 17.5367 7.23846 17.0847 7.69046L15.3999 9.37606Z" fill="#8F95AC"/>
</svg>
