<?xml version="1.0" encoding="utf-8"?>
<!-- Generator: Adobe Illustrator 23.0.2, SVG Export Plug-In . SVG Version: 6.00 Build 0)  -->
<svg version="1.1" id="Layer_1" xmlns="http://www.w3.org/2000/svg" xmlns:xlink="http://www.w3.org/1999/xlink" x="0px" y="0px"
	 viewBox="0 0 23 23" style="enable-background:new 0 0 23 23;" xml:space="preserve">
<style type="text/css">
	.st0{opacity:0.4;fill-rule:evenodd;clip-rule:evenodd;fill:#8F95AB;enable-background:new    ;}
	.st1{fill-rule:evenodd;clip-rule:evenodd;fill:#8F95AB;}
	.st2{fill:none;stroke:#8F95AB;stroke-linecap:round;stroke-miterlimit:10;}
</style>
<g>
	<path class="st0" d="M21.4,6h-1.7v0.8c0,1.4-1.1,2.5-2.4,2.5h-0.6c-1.3,0-2.4-1.1-2.4-2.5V6H8.7v0.8c0,1.4-1.1,2.5-2.4,2.5H5.7
		c-1.3,0-2.4-1.1-2.4-2.5V6H1.6C0.7,6,0,6.7,0,7.5v10.9C0,19.3,0.7,20,1.6,20h19.8c0.9,0,1.6-0.7,1.6-1.5V7.5C23,6.7,22.3,6,21.4,6"
		/>
	<path class="st1" d="M17.3,8h-0.5C16.4,8,16,7.6,16,7.1V3.9C16,3.4,16.4,3,16.8,3h0.5C17.7,3,18,3.4,18,3.9v3.1
		C18,7.6,17.7,8,17.3,8"/>
	<path class="st1" d="M6.3,8H5.8C5.4,8,5,7.6,5,7.1V3.9C5,3.4,5.4,3,5.8,3h0.5C6.7,3,7,3.4,7,3.9v3.1C7,7.6,6.7,8,6.3,8"/>
	<line class="st2" x1="4.6" y1="12.5" x2="13.4" y2="12.5"/>
	<line class="st2" x1="4.6" y1="16.5" x2="9.4" y2="16.5"/>
</g>
</svg>
