<svg width="17" height="13" viewBox="0 0 17 13"  xmlns="http://www.w3.org/2000/svg">
<path fill-rule="evenodd" clip-rule="evenodd" d="M0.6 0C0.268629 0 0 0.268629 0 0.6V12.4C0 12.7314 0.268629 13 0.6 13H8.4C8.73137 13 9 12.7314 9 12.4V7.02426H14.1515L12.1757 9C11.9414 9.23431 11.9414 9.61421 12.1757 9.84853C12.4101 10.0828 12.7899 10.0828 13.0243 9.84853L16.0243 7.02426C16.0818 6.96674 16.1252 6.90044 16.1545 6.82967C16.1801 6.76777 16.1957 6.70064 16.1992 6.63032C16.1997 6.62028 16.2 6.61017 16.2 6.6C16.2 6.58964 16.1997 6.57935 16.1992 6.56912C16.1957 6.49901 16.1801 6.43207 16.1545 6.37033C16.1252 6.29956 16.0818 6.23326 16.0243 6.17574L13.0243 3.17574C12.7899 2.94142 12.4101 2.94142 12.1757 3.17574C11.9414 3.41005 11.9414 3.78995 12.1757 4.02426L14.1515 6H9V0.6C9 0.268629 8.73137 0 8.4 0H0.6ZM8 6V1H1V12H8V7.02426H4.6C4.26863 7.02426 4 6.93137 4 6.6C4 6.26863 4.26863 6 4.6 6H8Z" />
</svg>
