<?xml version="1.0" encoding="utf-8"?>
<!-- Generator: Adobe Illustrator 23.0.2, SVG Export Plug-In . SVG Version: 6.00 Build 0)  -->
<svg version="1.1" id="Layer_1" xmlns="http://www.w3.org/2000/svg" xmlns:xlink="http://www.w3.org/1999/xlink" x="0px" y="0px"
	 viewBox="0 0 23 23" style="enable-background:new 0 0 23 23;" xml:space="preserve">
<style type="text/css">
	.st0{opacity:0.4;}
	.st1{fill:#8F95AC;}
	.st2{fill-rule:evenodd;clip-rule:evenodd;fill:#8F95AC;}
</style>
<g>
	<g class="st0">
		<path class="st1" d="M9.8,22c-0.2,0-0.3,0-0.5-0.1C9,21.7,8.8,21.4,8.8,21v-5L3.9,9.6C3.5,9.1,3.4,8.5,3.7,7.9
			C3.9,7.4,4.5,7,5.1,7h12.8c0.6,0,1.2,0.4,1.4,0.9c0.3,0.6,0.2,1.2-0.2,1.7L14.3,16v2.6c0,0.3-0.2,0.6-0.4,0.8l-3.5,2.4
			C10.1,21.9,10,22,9.8,22z M17.6,8.4C17.6,8.4,17.6,8.4,17.6,8.4L17.6,8.4z M5.4,8.3C5.4,8.3,5.4,8.3,5.4,8.3
			C5.4,8.3,5.4,8.3,5.4,8.3z"/>
	</g>
	<circle class="st2" cx="11.5" cy="3" r="2"/>
</g>
</svg>
