<svg width="31" height="22" viewBox="0 0 31 22" xmlns="http://www.w3.org/2000/svg">
<path d="M2.60059 21.0002V6.20017C2.60059 5.80017 2.90059 5.39917 3.40059 5.39917H8.79959" />
<path d="M28.1004 21.0002V6.20017C28.1004 5.80017 27.7994 5.39917 27.2994 5.39917H21.9004" />
<path d="M8.7002 21.0002V1.30024C8.7002 0.899244 9.0002 0.500244 9.5002 0.500244H20.9002C21.3002 0.500244 21.7002 0.800244 21.7002 1.30024V21.0002" />
<path fill-rule="evenodd" clip-rule="evenodd" d="M18.4996 7.50024H16.2996V5.30024C16.2996 5.10024 16.1996 5.00024 15.9996 5.00024H14.4996C14.2996 5.00024 14.1006 5.20024 14.1006 5.39924V7.50024H11.8996C11.6996 7.50024 11.6006 7.60024 11.6006 7.80024V9.30024C11.6006 9.50024 11.6996 9.60024 11.8996 9.60024H14.1006V11.8002C14.1006 12.0002 14.1996 12.1002 14.3996 12.1002H15.8996C16.1006 12.1002 16.1996 12.0002 16.1996 11.8002V9.60024H18.3996C18.6006 9.60024 18.6996 9.50024 18.6996 9.30024V7.80024C18.7996 7.60024 18.6006 7.50024 18.4996 7.50024Z" />
<path d="M13.1006 21.0002V15.8002C13.1006 15.6002 13.2996 15.3992 13.6006 15.3992H16.9006C17.2006 15.3992 17.4006 15.6002 17.4006 15.8002V21.0002" />
<path d="M0 21.0002H30.8" />
<path d="M8.7 10.2004H5" />
<path d="M8.7 14.3997H5" />
<path d="M25.4002 10.2004H21.7002" />
<path d="M25.4002 14.3997H21.7002" />
</svg>
