<?xml version="1.0" encoding="UTF-8"?>
<svg width="20px" height="24px" viewBox="0 0 20 24" version="1.1" xmlns="http://www.w3.org/2000/svg" xmlns:xlink="http://www.w3.org/1999/xlink">
    <!-- Generator: Sketch 62 (91390) - https://sketch.com -->
    <title>Group 7</title>
    <desc>Created with Sketch.</desc>
    <g id="1600" stroke="none" stroke-width="1" fill="none" fill-rule="evenodd">
        <g id="Property_card" transform="translate(-245.000000, -3388.000000)" stroke="#FFFFFF">
            <g id="Group-7" transform="translate(245.000000, 3389.000000)">
                <path d="M16.7718,21.7317 L3.0068,21.7317 C1.6228,21.7317 0.5008,20.6087 0.5008,19.2247 L1.4038,3.0067 C1.4038,1.6227 2.5258,0.4997 3.9108,0.4997 L15.8688,0.4997 C17.2528,0.4997 18.3758,1.6227 18.3758,3.0067 L19.2788,19.2247 C19.2788,20.6087 18.1568,21.7317 16.7718,21.7317 Z" id="Stroke-1"></path>
                <path d="M15.3264,4.5711 L4.4524,4.5711 C3.8274,4.5711 3.3204,4.0641 3.3204,3.4401 L3.3204,3.4331 C3.3204,2.8091 3.8274,2.3021 4.4524,2.3021 L15.3264,2.3021 C15.9514,2.3021 16.4584,2.8091 16.4584,3.4331 L16.4584,3.4401 C16.4584,4.0641 15.9514,4.5711 15.3264,4.5711 Z" id="Stroke-3"></path>
                <path d="M6.7444,6.1981 L6.7444,7.7601 C6.7444,9.4961 8.1524,10.9041 9.8894,10.9041 C11.6264,10.9041 13.0344,9.4961 13.0344,7.7601 L13.0344,6.1981" id="Stroke-5"></path>
            </g>
        </g>
    </g>
</svg>