<svg width="20px" height="18px" viewBox="0 0 20 18" version="1.1" xmlns="http://www.w3.org/2000/svg" xmlns:xlink="http://www.w3.org/1999/xlink">
<path d="M18.5,4.02165988 C18.5,5.17442997 18.0909194,6.3257723 17.2791729,7.20407666 L9.02808071,16.1653851 L0.721463141,7.20476611 C-0.0909194496,6.3257723 -0.5,5.17442997 -0.5,4.02165988 C-0.5,2.8688898 -0.0909194496,1.71754746 0.721463141,0.838553656 C1.5486331,-0.0564400116 2.63378115,-0.5 3.71685278,-0.5 C4.7999244,-0.5 5.88507245,-0.0564400116 6.71224241,0.838553656 L8.99995916,3.31385147 L11.2876759,0.838553656 C12.1148443,-0.0564383065 13.2000129,-0.5 14.2831064,-0.5 C15.3661999,-0.5 16.4513685,-0.0564383065 17.2785369,0.838553656 C18.0909194,1.71754746 18.5,2.8688898 18.5,4.02165988 Z" id="Stroke-3"></path>
</svg>