<svg width="20" height="13" viewBox="0 0 20 13" fill="none" xmlns="http://www.w3.org/2000/svg">
<path fill-rule="evenodd" clip-rule="evenodd" d="M19.4416 5.11464C17.891 3.19322 14.1155 0 10.002 0C5.88459 0 2.10489 3.19327 0.55425 5.11464C0.20426 5.55347 0.0125684 6.02873 0 6.50002C0.0126143 6.97136 0.20426 7.44667 0.55425 7.88545C2.10494 9.80718 5.88047 13 9.99796 13C14.1155 13 17.891 9.80718 19.4416 7.88545C19.7956 7.44662 19.9874 6.97136 20 6.50002C19.9874 6.02873 19.7956 5.55347 19.4416 5.11464" fill="#8F95AC" fill-opacity="0.4"/>
<path fill-rule="evenodd" clip-rule="evenodd" d="M9.9997 10.5625C7.69991 10.5625 5.83301 8.74253 5.83301 6.50004C5.83301 4.25761 7.69991 2.4375 9.9997 2.4375C12.2994 2.4375 14.1663 4.25761 14.1663 6.50004C14.1663 8.74248 12.2994 10.5625 9.9997 10.5625" fill="white"/>
<path fill-rule="evenodd" clip-rule="evenodd" d="M7.5 6.49998C7.5 7.84495 8.62056 8.9375 10 8.9375C11.3794 8.9375 12.5 7.84495 12.5 6.49998V6.47972C12.2331 6.74381 11.8669 6.90625 11.4583 6.90625C10.6539 6.90625 10 6.26849 10 5.48442C10 4.91986 10.3413 4.42813 10.8292 4.20058C10.5709 4.11128 10.2918 4.0625 10 4.0625C8.62056 4.06246 7.5 5.15519 7.5 6.49998" fill="#8F95AC"/>
</svg>
