<?xml version="1.0" encoding="UTF-8"?>
<svg width="25px" height="23px" viewBox="0 0 25 23" version="1.1" xmlns="http://www.w3.org/2000/svg" xmlns:xlink="http://www.w3.org/1999/xlink">
    <!-- Generator: Sketch 62 (91390) - https://sketch.com -->
    <title>Group 13</title>
    <desc>Created with Sketch.</desc>
    <g id="1600" stroke="none" stroke-width="1" fill="none" fill-rule="evenodd">
        <g id="Property_card" transform="translate(-766.000000, -3388.000000)" stroke="#FFFFFF">
            <g id="Group-13" transform="translate(767.000000, 3389.000000)">
                <path d="M12.5592,10.113 L13.8232,2.738 C14.1282,1.136 15.4542,-1.26121336e-13 16.9652,-1.26121336e-13 L17.3532,-1.26121336e-13 C18.8652,-1.26121336e-13 20.2152,1.162 20.4852,2.738 L22.6482,15.263 C22.8982,16.819 21.4222,18.001 19.9112,18.001 L14.3972,18.001 C13.9032,18.001 13.4192,17.886 12.9982,17.673 C12.6742,17.509 12.3872,17.286 12.1622,17.013" id="Stroke-1"></path>
                <path d="M11.361,9.3918 C11.374,9.2578 11.401,9.1278 11.401,8.9908 C11.401,6.5758 9.444,4.6188 7.029,4.6188 C5.006,4.6188 3.32,5.9998 2.821,7.8668 C1.175,8.6168 -2.77111667e-13,10.5068 -2.77111667e-13,12.7388 C-2.77111667e-13,15.6258 1.958,17.9658 4.372,17.9658 L9.66,17.9658 C12.075,17.9658 14.033,15.9678 14.033,13.5038 C14.033,11.6548 12.93,10.0688 11.361,9.3918 Z" id="Stroke-3"></path>
                <line x1="17.1598" y1="11.5837" x2="17.1598" y2="21.9777" id="Stroke-5"></line>
                <line x1="7.0621" y1="11.5837" x2="7.0621" y2="21.9777" id="Stroke-7"></line>
                <line x1="7.0133" y1="16.0256" x2="3.4873" y2="12.3776" id="Stroke-9"></line>
                <line x1="7.0621" y1="16.0256" x2="10.7101" y2="12.3776" id="Stroke-11"></line>
            </g>
        </g>
    </g>
</svg>