<?xml version="1.0" encoding="UTF-8"?>
<svg width="22px" height="22px" viewBox="0 0 22 22" version="1.1" xmlns="http://www.w3.org/2000/svg" xmlns:xlink="http://www.w3.org/1999/xlink">
    <!-- Generator: Sketch 62 (91390) - https://sketch.com -->
    <title>Group 15</title>
    <desc>Created with Sketch.</desc>
    <g id="1600" stroke="none" stroke-width="1" fill="none" fill-rule="evenodd" stroke-linecap="round" stroke-linejoin="round">
        <g id="Property_card_flat" transform="translate(-953.000000, -231.000000)" stroke="#8F95AC">
            <g id="Group-2" transform="translate(941.000000, 219.000000)">
                <g id="Group-15" transform="translate(12.000000, 12.000000)">
                    <path d="M18.4092,8.2322 C18.8782,8.2322 19.2582,8.6122 19.2582,9.0812 C19.2582,9.5482 18.8782,9.9282 18.4092,9.9282 C17.9412,9.9282 17.5612,9.5482 17.5612,9.0812 C17.5612,8.6122 17.9412,8.2322 18.4092,8.2322 Z" id="Stroke-1"></path>
                    <path d="M17.1377,6.5369 L17.1377,1.5379 C17.1377,1.0199 16.7167,0.5999 16.1997,0.5999 L5.3547,0.5999 C4.8357,0.5999 4.4157,1.0199 4.4157,1.5379 L4.4157,6.5369" id="Stroke-3"></path>
                    <path d="M17.1377,13.4168 L17.1377,20.0098 C17.1377,20.5308 16.7147,20.9538 16.1937,20.9538 L5.3607,20.9538 C4.8387,20.9538 4.4157,20.5308 4.4157,20.0098 L4.4157,13.4168 C4.4157,12.8958 4.8387,12.4728 5.3607,12.4728 L16.1937,12.4728 C16.7147,12.4728 17.1377,12.8958 17.1377,13.4168 Z" id="Stroke-5"></path>
                    <path d="M4.416,17.1375 L1.448,17.1375 C0.979,17.1375 0.6,16.7575 0.6,16.2885 L0.6,7.3845 C0.6,6.9165 0.979,6.5365 1.448,6.5365 L20.105,6.5365 C20.573,6.5365 20.953,6.9165 20.953,7.3845 L20.953,16.2885 C20.953,16.7575 20.573,17.1375 20.105,17.1375 L17.138,17.1375" id="Stroke-7"></path>
                    <line x1="15.0166" y1="15.0174" x2="6.5366" y2="15.0174" id="Stroke-9"></line>
                    <line x1="13.3213" y1="16.7136" x2="6.5363" y2="16.7136" id="Stroke-11"></line>
                    <line x1="15.0166" y1="18.409" x2="6.5366" y2="18.409" id="Stroke-13"></line>
                </g>
            </g>
        </g>
    </g>
</svg>