<svg id="Layer_1" data-name="Layer 1" xmlns="http://www.w3.org/2000/svg" viewBox="0 0 103 103"><defs><style>.cls-1{fill:#f5fbfe;}.cls-1,.cls-2,.cls-4{fill-rule:evenodd;}.cls-2{fill:#e7f1f8;}.cls-3{fill:none;}.cls-4{fill:#c9dde9;opacity:0.25;isolation:isolate;}</style></defs><title>planet_light_right</title><path class="cls-1" d="M103,51.7A51.5,51.5,0,1,1,51.5.2,51.55,51.55,0,0,1,103,51.7Z"/><path class="cls-2" d="M45.1,84.1A25.56,25.56,0,0,0,28.5,96a47.59,47.59,0,0,0,12.9,4.8A21.21,21.21,0,0,1,57.2,90.7c15.4-1.9,18.2-1.4,24-9.4,3.9-5.4,10-6.8,16.3-6.4a51.45,51.45,0,0,0,4.4-12.3c-12.9.1-19.6,8.5-24.6,13.1C71.5,81,62.7,79.9,45.1,84.1Z"/><path class="cls-2" d="M80,51.5C64.8,62.4,50.2,60.2,30.6,67,19.7,70.8,13.1,76.7,9.5,81.2a63.6,63.6,0,0,0,5.6,7C19.6,82,28.8,72.1,43.6,69c22.1-4.7,31.4-.4,46.1-11a163.6,163.6,0,0,0,13.1-10.3c-.6-4.6-1.3-9.7-3-13.9C94.5,39.2,87.3,46.2,80,51.5Z"/><path class="cls-2" d="M80.5,9.7c-5.5,3.5-9.3,8.8-12.3,15.7-4.2,9.4-10.5,7.2-23.8,9.4s-14.1,10-23.5,18C14.5,58.3,5.7,59.5.8,59.7A50.55,50.55,0,0,0,4,71.4,72.61,72.61,0,0,1,30,58.6c22.4-6.1,42.1-16.9,49.6-26.1,3.4-4.1,7.7-9.1,11.5-13.3A56.67,56.67,0,0,0,80.5,9.7Z"/><path class="cls-2" d="M44.1,15.7c-5.1,6.5-11.6,8.4-24.6,9.2A34.93,34.93,0,0,0,7,28.3,51.53,51.53,0,0,0,1.5,50.8c4.9-6.3,12.2-13.5,22.1-18C44.1,23.3,50,25.2,58.4,16.2A63,63,0,0,0,67.3,3.4,48.89,48.89,0,0,0,53.9,1,117.2,117.2,0,0,1,44.1,15.7Z"/><path class="cls-3" d="M12.6,17.6c4.6-.1,10.1-.7,14.1-2.4C34.1,12,40.8,7.4,44.3,1A52.76,52.76,0,0,0,12.6,17.6Z"/><path class="cls-4" d="M25.7,7.2A51.27,51.27,0,0,0,0,51.9c0,28.3,22.6,51.3,50.5,51.3A47.31,47.31,0,0,0,67,100.3C20.9,69.1,22,26.9,25.7,7.2Z"/></svg>