<?xml version="1.0" encoding="utf-8"?>
<!-- Generator: Adobe Illustrator 23.0.2, SVG Export Plug-In . SVG Version: 6.00 Build 0)  -->
<svg version="1.1" id="Layer_1" xmlns="http://www.w3.org/2000/svg" xmlns:xlink="http://www.w3.org/1999/xlink" x="0px" y="0px"
	 viewBox="0 0 103 103" style="enable-background:new 0 0 103 103;" xml:space="preserve">
<style type="text/css">
	.st0{fill-rule:evenodd;clip-rule:evenodd;fill:#2C2E3E;}
	.st1{fill-rule:evenodd;clip-rule:evenodd;fill:#232637;}
	.st2{fill:none;}
	.st3{opacity:0.35;fill-rule:evenodd;clip-rule:evenodd;fill:#1E2030;enable-background:new    ;}
</style>
<g>
	<path class="st0" d="M103,51.7c0,28.4-23.1,51.5-51.5,51.5C23,103.2,0,80.1,0,51.7C0,23.2,23,0.2,51.5,0.2
		C79.9,0.2,103,23.2,103,51.7z"/>
	<path class="st1" d="M45.1,84.1c-8.9,2.1-13.8,7.3-16.6,11.9c4,2.2,8.3,3.8,12.9,4.8c2.6-4.2,7.4-9,15.8-10.1
		c15.4-1.9,18.2-1.4,24-9.4c3.9-5.4,10-6.8,16.3-6.4c2-3.7,3.4-8.1,4.4-12.3C89,62.7,82.3,71.1,77.3,75.7
		C71.5,81,62.7,79.9,45.1,84.1z"/>
	<path class="st1" d="M80,51.5C64.8,62.4,50.2,60.2,30.6,67c-10.9,3.8-17.5,9.7-21.1,14.2c1.7,2.5,3.6,4.8,5.6,7
		C19.6,82,28.8,72.1,43.6,69c22.1-4.7,31.4-0.4,46.1-11c5.3-3.8,9.6-7.2,13.1-10.3c-0.6-4.6-1.3-9.7-3-13.9
		C94.5,39.2,87.3,46.2,80,51.5z"/>
	<path class="st1" d="M80.5,9.7c-5.5,3.5-9.3,8.8-12.3,15.7c-4.2,9.4-10.5,7.2-23.8,9.4s-14.1,10-23.5,18
		c-6.4,5.5-15.2,6.7-20.1,6.9c0.6,4.1,1.7,8,3.2,11.7c5.3-4.2,13.9-9.5,26-12.8c22.4-6.1,42.1-16.9,49.6-26.1
		c3.4-4.1,7.7-9.1,11.5-13.3C88,15.7,84.5,12.4,80.5,9.7z"/>
	<path class="st1" d="M44.1,15.7c-5.1,6.5-11.6,8.4-24.6,9.2c-4.6,0.3-8.9,1.7-12.5,3.4c-3.4,6.8-5.4,14.4-5.5,22.5
		c4.9-6.3,12.2-13.5,22.1-18c20.5-9.5,26.4-7.6,34.8-16.6c3.7-4,6.7-8.7,8.9-12.8C63.1,2,58.6,1.2,53.9,1
		C51.1,6.1,47.1,11.9,44.1,15.7z"/>
	<path class="st2" d="M12.6,17.6c4.6-0.1,10.1-0.7,14.1-2.4C34.1,12,40.8,7.4,44.3,1C31.7,2.8,20.6,8.8,12.6,17.6z"/>
	<path class="st3" d="M25.7,7.2C10.3,16,0,32.7,0,51.9c0,28.3,22.6,51.3,50.5,51.3c5.8,0,11.4-1,16.5-2.9
		C20.9,69.1,22,26.9,25.7,7.2z"/>
</g>
</svg>
