<svg width="26" height="21" viewBox="0 0 26 21" xmlns="http://www.w3.org/2000/svg">
<path d="M5.73242 2.01359C5.73242 2.01359 7.24442 0.539591 9.19542 1.39159C12.4434 2.80759 11.8634 6.27859 11.8414 9.17359C11.8144 12.7176 17.0844 12.6456 16.4334 8.82359" />
<path d="M20.9475 18.279C20.9475 18.279 13.0485 7.96597 4.60449 18.24" />
<path d="M3.04823 17.4617C3.04823 17.4617 7.79523 13.1037 7.44523 9.01767C7.09523 4.93167 4.65623 6.54367 4.41023 6.72167C3.70323 7.23267 2.78623 7.84367 2.15623 6.98067C1.36023 5.88767 3.94323 3.06467 3.94323 3.06467L3.97323 1.27867C3.97323 1.27867 4.03723 0.83967 4.35123 1.06367C4.84123 1.41067 5.53323 2.03467 6.97823 2.28567C8.73923 2.59167 10.1242 4.31767 10.9082 6.02167C12.0072 8.40867 14.4102 10.0677 17.1342 8.20067C17.1342 8.20067 20.1912 5.64167 25.1112 10.4957C25.1112 10.4957 25.0632 12.8567 22.3872 12.3637C22.3872 12.3637 20.2912 7.81667 18.3802 9.48367C16.5502 11.0797 22.6982 17.2287 22.6982 17.2287" />
<path d="M1 15.7605C1 15.7605 11.456 25.1905 24.526 15.8075" stroke-linecap="round"/>
</svg>
