<svg width="12" height="11" viewBox="0 0 12 11" xmlns="http://www.w3.org/2000/svg">
<path fill-rule="evenodd" clip-rule="evenodd" d="M0 0.717391C0 0.321187 0.314945 0 0.703448 0H11.2966C11.6851 0 12 0.321187 12 0.717391C12 1.1136 11.6851 1.43478 11.2966 1.43478H0.703448C0.314945 1.43478 0 1.1136 0 0.717391ZM0 5.5C0 5.1038 0.314945 4.78261 0.703448 4.78261H11.2966C11.6851 4.78261 12 5.1038 12 5.5C12 5.8962 11.6851 6.21739 11.2966 6.21739H0.703448C0.314945 6.21739 0 5.8962 0 5.5ZM0 10.2826C0 9.8864 0.314945 9.56522 0.703448 9.56522H11.2966C11.6851 9.56522 12 9.8864 12 10.2826C12 10.6788 11.6851 11 11.2966 11H0.703448C0.314945 11 0 10.6788 0 10.2826Z"/>
</svg>
