<?xml version="1.0" encoding="UTF-8"?>
<svg width="19px" height="13px" viewBox="0 0 19 13" version="1.1" xmlns="http://www.w3.org/2000/svg" xmlns:xlink="http://www.w3.org/1999/xlink">
    <!-- Generator: Sketch 62 (91390) - https://sketch.com -->
    <title>Group 11</title>
    <desc>Created with Sketch.</desc>
    <g id="Symbols" stroke="none" stroke-width="1" fill="none" fill-rule="evenodd">
        <g id="Menu_LK" transform="translate(-818.000000, -6.000000)" fill="#8F95AC">
            <g id="Group-19">
                <g transform="translate(818.000000, 6.000000)">
                    <g id="Group-11">
                        <path d="M13.4863,3.7565 C14.8613,3.7565 15.9743,4.8705 15.9743,6.2445 C15.9743,7.6195 14.8613,8.7345 13.4863,8.7345 C12.1113,8.7345 10.9973,7.6195 10.9973,6.2445 C10.9973,4.8705 12.1113,3.7565 13.4863,3.7565" id="Fill-1" fill-opacity="0.5"></path>
                        <path d="M6.4999,-0.0003 C8.4339,-0.0003 9.9999,1.5667 9.9999,3.4997 C9.9999,5.4337 8.4339,6.9997 6.4999,6.9997 C4.5669,6.9997 2.9999,5.4337 2.9999,3.4997 C2.9999,1.5667 4.5669,-0.0003 6.4999,-0.0003" id="Fill-3" fill-opacity="0.5"></path>
                        <path d="M12.9999,12.9997 C12.9999,10.7997 11.3389,8.9997 9.3109,8.9997 L3.6899,8.9997 C1.6609,8.9997 -0.000100000001,10.7997 -0.000100000001,12.9997 L12.9999,12.9997 Z" id="Fill-8"></path>
                        <path d="M14.4999,12.9997 L14.4999,12.9997 L18.1079,12.9997 C18.1079,11.4357 16.9269,10.1557 15.4839,10.1557 L13.7439,10.1557 C14.2199,10.9867 14.4999,11.9587 14.4999,12.9997" id="Fill-6"></path>
                    </g>
                </g>
            </g>
        </g>
    </g>
</svg>