<?xml version="1.0" encoding="UTF-8"?>
<svg width="14px" height="16px" viewBox="0 0 14 16" version="1.1" xmlns="http://www.w3.org/2000/svg" xmlns:xlink="http://www.w3.org/1999/xlink">
    <!-- Generator: Sketch 62 (91390) - https://sketch.com -->
    <title>Group 6</title>
    <desc>Created with Sketch.</desc>
    <g id="1600" stroke="none" stroke-width="1" fill="none" fill-rule="evenodd">
        <g id="LK_menu" transform="translate(-1262.000000, -266.000000)" fill="#8F95AC">
            <g id="Group-6" transform="translate(1262.000000, 266.000000)">
                <path d="M8.50583333,16 L1.49416667,16 C0.669166667,16 0,15.3984 0,14.6552 L0,5.3448 C0,4.6024 0.669166667,4 1.49416667,4 L8.50583333,4 C9.33083333,4 10,4.6024 10,5.3448 L10,14.6552 C10,15.3984 9.33083333,16 8.50583333,16" id="Fill-1" fill-opacity="0.4"></path>
                <path d="M12.3568039,0 L4.64405197,0 C3.73687077,0 3,0.652225335 3,1.45658263 L3,2.86623094 L8.22827355,2.86623094 C9.743095,2.86623094 10.9754921,3.99103641 10.9754921,5.37317149 L10.9754921,13 L12.3568039,13 C13.2648409,13 14,12.3485839 14,11.5442266 L14,1.45658263 C14,0.652225335 13.2648409,0 12.3568039,0" id="Fill-3"></path>
            </g>
        </g>
    </g>
</svg>