<?xml version="1.0" encoding="UTF-8"?>
<svg width="17px" height="11px" viewBox="0 0 17 11" version="1.1" xmlns="http://www.w3.org/2000/svg" xmlns:xlink="http://www.w3.org/1999/xlink">
    <!-- Generator: Sketch 62 (91390) - https://sketch.com -->
    <title>Group 6</title>
    <desc>Created with Sketch.</desc>
    <g id="Symbols" stroke="none" stroke-width="1" fill="none" fill-rule="evenodd">
        <g id="Menu_LK" transform="translate(-642.000000, -9.000000)" fill="#8F95AC">
            <g id="Group-8">
                <g transform="translate(642.000000, 6.000000)">
                    <g id="Group-6" transform="translate(0.000000, 3.000000)">
                        <path d="M3.9419,6.0674 L3.9419,4.3904 C3.9419,2.8284 3.2219,2.0994 1.6759,2.0994 L1.5509,2.0994 L1.5509,0.9014 C1.5509,0.4044 1.9549,0.0004 2.4509,0.0004 L13.6309,0.0004 C14.1279,0.0004 14.5319,0.4044 14.5319,0.9014 L14.5319,2.0444 L14.4059,2.0444 C12.8979,2.0444 12.1089,3.2244 12.1089,4.3904 L12.1089,6.0674 L3.9419,6.0674 Z" id="Fill-1" fill-opacity="0.5"></path>
                        <path d="M13.3203,10.874 C13.2513,10.874 13.1953,10.817 13.1953,10.748 L13.1953,9.943 L2.8863,9.943 L2.8863,10.748 C2.8863,10.817 2.8303,10.874 2.7613,10.874 L1.6753,10.874 C1.6073,10.874 1.5503,10.817 1.5503,10.748 L1.5503,9.943 L0.9003,9.943 C0.4033,9.943 0.000299999997,9.54 0.000299999997,9.043 L0.000299999997,4.014 C0.000299999997,3.622 0.1473,3.49 0.5823,3.49 L1.9993,3.49 C2.3823,3.49 2.5763,3.703 2.5763,4.122 L2.5763,6.717 C2.5763,7.075 2.8683,7.366 3.2263,7.366 L12.8553,7.366 C13.2143,7.366 13.5053,7.075 13.5053,6.717 L13.5053,4.391 C13.5053,4.18 13.5543,3.49 14.2043,3.49 L15.4373,3.49 C15.9703,3.49 16.0823,3.979 16.0823,4.391 L16.0823,9.043 C16.0823,9.54 15.6783,9.943 15.1813,9.943 L14.5323,9.943 L14.5323,10.748 C14.5323,10.816 14.4743,10.874 14.4063,10.874 L13.3203,10.874 Z" id="Fill-3"></path>
                    </g>
                </g>
            </g>
        </g>
    </g>
</svg>