<?xml version="1.0" encoding="UTF-8"?>
<svg width="19px" height="14px" viewBox="0 0 19 14" version="1.1" xmlns="http://www.w3.org/2000/svg" xmlns:xlink="http://www.w3.org/1999/xlink">
    <!-- Generator: Sketch 62 (91390) - https://sketch.com -->
    <title>Group 13</title>
    <desc>Created with Sketch.</desc>
    <g id="Symbols" stroke="none" stroke-width="1" fill="none" fill-rule="evenodd">
        <g id="Menu_LK" transform="translate(-1235.000000, -6.000000)">
            <g id="Group-21">
                <g transform="translate(1235.000000, 6.000000)">
                    <g id="Group-13">
                        <path d="M17.1067,2.4353 L15.7537,2.4353 L15.7537,3.0813 C15.7537,4.1443 14.8877,5.0103 13.8237,5.0103 L13.3647,5.0103 C12.3007,5.0103 11.4347,4.1443 11.4347,3.0813 L11.4347,2.4353 L6.9377,2.4353 L6.9377,3.0813 C6.9377,4.1443 6.0707,5.0103 5.0067,5.0103 L4.5477,5.0103 C3.4837,5.0103 2.6177,4.1443 2.6177,3.0813 L2.6177,2.4353 L1.2657,2.4353 C0.5667,2.4353 0.000700000001,2.9783 0.000700000001,3.6473 L0.000700000001,12.2463 C0.000700000001,12.9153 0.5667,13.4573 1.2657,13.4573 L17.1067,13.4573 C17.8057,13.4573 18.3717,12.9153 18.3717,12.2463 L18.3717,3.6473 C18.3717,2.9783 17.8057,2.4353 17.1067,2.4353" id="Fill-4" fill-opacity="0.4" fill="#8F95AC"></path>
                        <path d="M13.824,3.7859 L13.365,3.7859 C12.975,3.7859 12.659,3.4709 12.659,3.0809 L12.659,0.7049 C12.659,0.3159 12.975,-0.0001 13.365,-0.0001 L13.824,-0.0001 C14.214,-0.0001 14.529,0.3159 14.529,0.7049 L14.529,3.0809 C14.529,3.4709 14.214,3.7859 13.824,3.7859" id="Fill-6" fill="#8F95AC"></path>
                        <path d="M5.0066,3.7859 L4.5476,3.7859 C4.1576,3.7859 3.8426,3.4709 3.8426,3.0809 L3.8426,0.7049 C3.8426,0.3159 4.1576,-0.0001 4.5476,-0.0001 L5.0066,-0.0001 C5.3966,-0.0001 5.7126,0.3159 5.7126,0.7049 L5.7126,3.0809 C5.7126,3.4709 5.3966,3.7859 5.0066,3.7859" id="Fill-1" fill="#8F95AC"></path>
                        <line x1="3.5" y1="7.5" x2="10.5" y2="7.5" id="Line" stroke="#8F95AC" stroke-linecap="round"></line>
                        <line x1="3.5" y1="10.5" x2="7.5" y2="10.5" id="Line" stroke="#8F95AC" stroke-linecap="round"></line>
                    </g>
                </g>
            </g>
        </g>
    </g>
</svg>