<?xml version="1.0" encoding="UTF-8"?>
<svg width="13px" height="11px" viewBox="0 0 13 11" version="1.1" xmlns="http://www.w3.org/2000/svg" xmlns:xlink="http://www.w3.org/1999/xlink">
    <!-- Generator: Sketch 62 (91390) - https://sketch.com -->
    <title>Group 7</title>
    <desc>Created with Sketch.</desc>
    <g id="Symbols" stroke="none" stroke-width="1" fill="none" fill-rule="evenodd">
        <g id="Menu_LK" transform="translate(-528.000000, -9.000000)" fill="#8F95AC">
            <g id="Group-10">
                <g transform="translate(528.000000, 6.000000)">
                    <g id="Group-7" transform="translate(0.000000, 3.000000)">
                        <path d="M7.1034,3.0009 L12.9104,3.0009 L12.9104,0.8689 C12.9104,0.3899 12.5204,-0.0001 12.0404,-0.0001 L4.7174,-0.0001 L7.1034,3.0009 Z" id="Fill-1"></path>
                        <path d="M12.1552,10.9238 L0.7552,10.9238 C0.3392,10.9238 0.000199999999,10.5698 0.000199999999,10.1338 L0.000199999999,0.7898 C0.000199999999,0.3548 0.3392,-0.0002 0.7552,-0.0002 L3.0022,-0.0002 L6.4552,4.3438 L12.3452,4.3438 C12.6572,4.3438 12.9102,4.6098 12.9102,4.9368 L12.9102,10.1338 C12.9102,10.5698 12.5722,10.9238 12.1552,10.9238" id="Fill-4" fill-opacity="0.5"></path>
                    </g>
                </g>
            </g>
        </g>
    </g>
</svg>