<?xml version="1.0" encoding="UTF-8"?>
<svg width="16px" height="15px" viewBox="0 0 16 15" version="1.1" xmlns="http://www.w3.org/2000/svg" xmlns:xlink="http://www.w3.org/1999/xlink">
    <!-- Generator: Sketch 62 (91390) - https://sketch.com -->
    <title>Stroke 3</title>
    <desc>Created with Sketch.</desc>
    <g id="1600" stroke="none" stroke-width="1" fill="none" fill-rule="evenodd" fill-opacity="0.4" stroke-opacity="0.4">
        <g id="LK_menu" transform="translate(-1261.000000, -229.000000)" fill="#8F95AC" stroke="#8F95AC">
            <path d="M1276.5,233.127958 C1276.5,234.05201 1276.17156,234.974635 1275.5211,235.678432 L1269.02212,242.736814 L1262.47954,235.679122 C1261.82844,234.974635 1261.5,234.05201 1261.5,233.127958 C1261.5,232.203905 1261.82844,231.281281 1262.47954,230.576794 C1263.14543,229.856307 1264.01919,229.5 1264.89089,229.5 C1265.76258,229.5 1266.63634,229.856307 1267.30223,230.576794 L1268.99997,232.413736 L1270.69771,230.576794 C1271.36359,229.856308 1272.23737,229.5 1273.10908,229.5 C1273.98079,229.5 1274.85457,229.856308 1275.52046,230.576794 C1276.17156,231.281281 1276.5,232.203905 1276.5,233.127958 Z" id="Stroke-3"></path>
        </g>
    </g>
</svg>