<?xml version="1.0" encoding="UTF-8"?>
<svg width="19px" height="19px" viewBox="0 0 19 19" version="1.1" xmlns="http://www.w3.org/2000/svg" xmlns:xlink="http://www.w3.org/1999/xlink">
    <!-- Generator: Sketch 62 (91390) - https://sketch.com -->
    <title>Group 3</title>
    <desc>Created with Sketch.</desc>
    <g id="1600" stroke="none" stroke-width="1" fill="none" fill-rule="evenodd" fill-opacity="0.4">
        <g id="LK_menu" transform="translate(-1260.000000, -442.000000)" fill="#8F95AC">
            <g id="Group-3" transform="translate(1260.000000, 442.000000)">
                <path d="M3.5328,16.2501 C2.7298,16.2501 2.0788,15.5991 2.0788,14.7951 C2.0788,13.9921 2.7298,13.3401 3.5328,13.3401 C4.3368,13.3401 4.9878,13.9921 4.9878,14.7951 C4.9878,15.5991 4.3368,16.2501 3.5328,16.2501 M18.1428,2.7731 L14.3368,6.5801 C14.1788,6.7381 13.9228,6.7381 13.7638,6.5801 L11.7528,4.5681 C11.5948,4.4101 11.5948,4.1541 11.7528,3.9961 L15.5538,0.1951 C15.3958,0.0781 15.2128,0.0001 15.0138,0.0001 L11.5768,0.0001 C11.3328,0.0001 11.0988,0.0971 10.9268,0.2691 L8.4958,2.7001 C8.3238,2.8721 8.2258,3.1061 8.2258,3.3501 L8.2258,6.7871 C8.2258,6.7961 8.2318,6.8041 8.2318,6.8131 L3.7608,11.2851 C3.6828,11.2801 3.6108,11.2621 3.5328,11.2621 C1.5818,11.2621 -0.0002,12.8441 -0.0002,14.7951 C-0.0002,16.7471 1.5818,18.3291 3.5328,18.3291 C5.4848,18.3291 7.0658,16.7471 7.0658,14.7951 C7.0658,14.7261 7.0508,14.6621 7.0468,14.5931 L11.5148,10.1251 C11.5358,10.1261 11.5548,10.1371 11.5768,10.1371 L15.0138,10.1371 C15.2578,10.1371 15.4918,10.0401 15.6638,9.8681 L18.0948,7.4371 C18.2668,7.2651 18.3638,7.0311 18.3638,6.7871 L18.3638,3.3501 C18.3638,3.1361 18.2778,2.9371 18.1428,2.7731" id="Fill-1"></path>
            </g>
        </g>
    </g>
</svg>