<?xml version="1.0" encoding="UTF-8"?>
<svg width="14px" height="16px" viewBox="0 0 14 16" version="1.1" xmlns="http://www.w3.org/2000/svg" xmlns:xlink="http://www.w3.org/1999/xlink">
    <!-- Generator: Sketch 62 (91390) - https://sketch.com -->
    <title>Group 5</title>
    <desc>Created with Sketch.</desc>
    <g id="1600" stroke="none" stroke-width="1" fill="none" fill-rule="evenodd">
        <g id="LK_menu" transform="translate(-1262.000000, -342.000000)" fill="#8F95AC">
            <g id="Group-5" transform="translate(1262.000000, 342.000000)">
                <path d="M1.18735295,12 C-0.143034411,12 -0.111968014,10.9036366 0.129852816,10.331684 C0.96218371,8.36296322 2.39695417,8.7167226 2.39695417,7.126051 L2.39695417,3.47718072 C2.39695417,0.399432546 6.0911215,0 7,0 C7.9088785,0 11.6030458,0.399432546 11.6030458,3.47718072 L11.6030458,7.126051 C11.6030458,8.7167226 13.0378163,8.36296322 13.8701472,10.331684 C14.111968,10.9036366 14.1430344,12 12.812647,12 L1.18735295,12 Z" id="Stroke-1" fill-opacity="0.4"></path>
                <path d="M10,13 C10,14.6561166 8.65682788,16 7,16 C5.34317212,16 4,14.6564723 4,13" id="Stroke-3"></path>
            </g>
        </g>
    </g>
</svg>