<?xml version="1.0" encoding="UTF-8"?>
<svg width="20px" height="20px" viewBox="0 0 20 20" version="1.1" xmlns="http://www.w3.org/2000/svg" xmlns:xlink="http://www.w3.org/1999/xlink">
    <!-- Generator: Sketch 62 (91390) - https://sketch.com -->
    <title>Group</title>
    <desc>Created with Sketch.</desc>
    <g id="1600" stroke="none" stroke-width="1" fill="none" fill-rule="evenodd">
        <g id="LK_menu" transform="translate(-1259.000000, -379.000000)" fill="#8F95AC">
            <g id="Group" transform="translate(1259.000000, 379.000000)">
                <path d="M10,13.3333333 C8.15916667,13.3333333 6.66666667,11.8408333 6.66666667,10 C6.66666667,8.15916667 8.15916667,6.66666667 10,6.66666667 C11.8408333,6.66666667 13.3333333,8.15916667 13.3333333,10 C13.3333333,11.8408333 11.8408333,13.3333333 10,13.3333333 Z M20,11.2305481 L20,8.73070433 L17.0245833,8.24448472 C16.8483333,7.53994542 16.5716667,6.87748682 16.2070833,6.27085807 L17.94125,3.79934587 L16.1733333,2.03237298 L13.7333333,3.78643001 C13.125,3.4181197 12.4583333,3.13730392 11.74875,2.96064829 L11.23,0 L8.73,0 L8.24833333,2.95106556 C7.53833333,3.12522134 6.86791667,3.40228736 6.25791667,3.76893111 L3.825,2.03070641 L2.05708333,3.79767931 L3.76833333,6.24502635 C3.39833333,6.85748807 3.11708333,7.52702956 2.93833333,8.24156824 L0,8.73070433 L0,11.2305481 L2.935,11.7509322 C3.11208333,12.4638043 3.39375,13.1333458 3.765,13.7466408 L2.03041667,16.1727392 L3.7975,17.9413787 L6.24791667,16.2252359 C6.85958333,16.592713 7.52833333,16.8718622 8.23833333,17.0472679 L8.73,20 L11.23,20 L11.7554167,17.0397683 C12.4616667,16.8606129 13.1291667,16.5793805 13.735,16.2106535 L16.2025,17.9417953 L17.97,16.1731558 L16.20875,13.7274754 C16.5733333,13.1208466 16.85,12.4575547 17.0245833,11.7530154 L20,11.2305481 Z" id="Stroke-1" fill-opacity="0.4"></path>
                <circle id="Oval" cx="10" cy="10" r="2"></circle>
            </g>
        </g>
    </g>
</svg>