<svg width="17" height="22" viewBox="0 0 17 22" fill="none" xmlns="http://www.w3.org/2000/svg">
<path fill-rule="evenodd" clip-rule="evenodd" d="M11.013 8.4092H5.199V4.9122C5.199 3.3092 6.503 2.0052 8.106 2.0052C9.709 2.0052 11.013 3.3092 11.013 4.9122V8.4092ZM14.39 8.4092H13.018V4.9122C13.018 2.2042 10.814 0.000198364 8.106 0.000198364C5.397 0.000198364 3.193 2.2042 3.193 4.9122V8.4092H1.822C0.815 8.4092 0 9.2242 0 10.2312V19.3402C0 20.3462 0.815 21.1612 1.822 21.1612H14.39C15.396 21.1612 16.212 20.3462 16.212 19.3402V10.2312C16.212 9.2242 15.396 8.4092 14.39 8.4092V8.4092Z" fill="white" fill-opacity="0.4"/>
<path fill-rule="evenodd" clip-rule="evenodd" d="M9.47218 17.29C9.47218 17.668 9.16718 17.974 8.78918 17.974H7.42318C7.04418 17.974 6.74018 17.668 6.74018 17.29L7.11818 14.949C6.61718 14.626 6.28418 14.061 6.28418 13.419C6.28418 12.413 7.09918 11.598 8.10618 11.598C9.11218 11.598 9.92718 12.413 9.92718 13.419C9.92718 14.061 9.59518 14.626 9.09418 14.949C9.09418 14.949 9.27218 16.024 9.47218 17.29" fill="#707191"/>
</svg>
