<svg width="114" height="63" xmlns="http://www.w3.org/2000/svg"><mask id="a" maskUnits="userSpaceOnUse" x="0" y="0" width="114" height="63"><path fill-rule="evenodd" clip-rule="evenodd" d="M0 0h113.986v62.174H0V0z" fill="#fff"/></mask><g mask="url(#a)"><path fill-rule="evenodd" clip-rule="evenodd" d="M60.013 50.9v-1.156c0-.07-.013-.094-.037-.119a.23.23 0 00-.106-.059.653.653 0 00-.213-.02h-5.132a.677.677 0 00-.215.02.236.236 0 00-.106.06c-.023.024-.037.048-.037.118V50.9c0 .07.014.094.037.12a.246.246 0 00.106.06.72.72 0 00.215.02h5.132a.695.695 0 00.213-.02.24.24 0 00.106-.06c.024-.026.037-.05.037-.12zm12.088.82c-.007.015-.007.034-.007.073v1.138c0 .04 0 .06.007.073a.075.075 0 00.03.031c.016.008.034.008.073.008h.864v2.22c0 .038 0 .058.008.073a.062.062 0 00.03.03c.014.008.034.008.072.008h1.728c.039 0 .058 0 .073-.008a.072.072 0 00.03-.03c.007-.015.007-.035.007-.073v-5.607c0-.039 0-.059-.007-.073a.07.07 0 00-.03-.03c-.015-.008-.034-.008-.073-.008h-1.728c-.038 0-.058 0-.072.007a.083.083 0 00-.021.016l-.007.01-.002.005c-.008.014-.008.034-.008.073v2.026h-.864c-.039 0-.057 0-.073.008a.072.072 0 00-.03.03zm13.242 2.293v-3.108h3.786c.039 0 .059 0 .073-.008a.07.07 0 00.031-.03c.008-.015.008-.034.008-.072v-1.139c0-.039 0-.059-.008-.073a.067.067 0 00-.031-.03c-.014-.008-.034-.008-.073-.008H83.7c-.039 0-.058 0-.073.007a.075.075 0 00-.03.031c-.008.014-.008.034-.008.073v5.607c0 .038 0 .058.008.073a.079.079 0 00.03.03c.015.008.034.008.073.008h5.429c.039 0 .059 0 .073-.008a.07.07 0 00.031-.03c.008-.015.008-.035.008-.074v-1.138c0-.038 0-.058-.008-.073a.075.075 0 00-.031-.03c-.014-.008-.034-.008-.073-.008h-3.786zm-.577-6.179c-.007.015-.007.034-.007.073v1.14c0 .038 0 .057.007.072a.081.081 0 00.031.03c.015.008.033.008.072.008h1.143c.039 0 .058 0 .073-.008a.081.081 0 00.031-.03c.006-.015.006-.034.006-.073v-1.139c0-.039 0-.058-.006-.073a.087.087 0 00-.019-.023l-.012-.008c-.015-.007-.034-.007-.073-.007h-1.143c-.039 0-.057 0-.072.007a.077.077 0 00-.031.031zm1.941.073c0-.039 0-.058.007-.073a.081.081 0 01.03-.03c.015-.008.035-.008.074-.008h1.142c.039 0 .059 0 .074.007a.081.081 0 01.03.031c.007.015.007.034.007.073v1.14c0 .038 0 .057-.007.072a.086.086 0 01-.03.03c-.015.008-.035.008-.074.008h-1.142c-.039 0-.059 0-.074-.008a.086.086 0 01-.03-.03c-.007-.015-.007-.034-.007-.073v-1.139zm-.966 3.813c-.007.015-.007.034-.007.073v1.138c0 .04 0 .06.007.073a.07.07 0 00.03.031c.014.008.034.008.072.008h2.508c.038 0 .058 0 .072-.008a.07.07 0 00.03-.03c.008-.015.008-.035.008-.074v-1.138c0-.039 0-.058-.008-.073a.067.067 0 00-.03-.03c-.014-.008-.034-.008-.072-.008h-2.508c-.038 0-.058 0-.072.008a.067.067 0 00-.03.03zm-16.757-2.137c-.008.014-.008.034-.008.073v5.607c0 .038 0 .058.008.073a.072.072 0 00.03.03c.015.008.034.008.073.008h1.727c.039 0 .058 0 .073-.008a.072.072 0 00.03-.03c.008-.015.008-.035.008-.073v-2.22h.863c.039 0 .058 0 .074-.008a.072.072 0 00.029-.03c.008-.015.008-.035.008-.074v-1.138c0-.039 0-.058-.008-.073a.07.07 0 00-.029-.03c-.016-.008-.035-.008-.074-.008h-.863v-2.026c0-.039 0-.059-.008-.073a.07.07 0 00-.03-.03c-.015-.008-.034-.008-.073-.008h-1.727c-.039 0-.058 0-.073.007a.07.07 0 00-.03.031zm-12.867 1.821c0-.039 0-.058.006-.073a.077.077 0 01.031-.03c.014-.007.034-.007.073-.007h1.727c.038 0 .058 0 .073.006a.081.081 0 01.03.031c.008.015.008.034.008.073v3.86c0 .037 0 .057-.008.072a.079.079 0 01-.03.03c-.015.008-.035.008-.073.008h-1.727c-.039 0-.059 0-.073-.008a.075.075 0 01-.031-.03c-.006-.015-.006-.035-.006-.073v-3.859zm44.459-1.859a.035.035 0 00-.035.035v1.293c0 .017.015.032.033.032h1.138a.777.777 0 110 1.554h-1.138a.032.032 0 00-.033.032v1.293c0 .02.016.035.035.035h1.335a2.136 2.136 0 100-4.274h-1.335zm-58.489.035c0-.02.016-.035.035-.035h1.335a2.137 2.137 0 010 4.274h-1.335a.035.035 0 01-.035-.035v-1.293c0-.018.014-.032.031-.032h1.14a.777.777 0 100-1.554h-1.14a.032.032 0 01-.031-.032V49.58zm56.319.003c-.008.014-.008.034-.008.073v5.607c0 .038 0 .058.008.073a.067.067 0 00.03.03c.015.008.034.008.073.008h1.532c.039 0 .058 0 .073-.008a.075.075 0 00.031-.03c.007-.015.007-.035.007-.073v-5.607c0-.039 0-.059-.007-.073a.071.071 0 00-.031-.03c-.015-.008-.034-.008-.073-.008h-1.532c-.039 0-.058 0-.073.007a.065.065 0 00-.03.031zm-58.462.073c0-.039 0-.059.007-.073a.071.071 0 01.031-.03c.014-.008.034-.008.073-.008h1.532c.038 0 .058 0 .072.007a.067.067 0 01.031.031c.008.014.008.034.008.073v5.607c0 .038 0 .058-.008.073a.07.07 0 01-.031.03c-.014.008-.034.008-.072.008h-1.532c-.039 0-.059 0-.073-.008a.075.075 0 01-.031-.03c-.007-.015-.007-.035-.007-.073v-5.607zm-12.64 3.192a.07.07 0 00-.065.046l-.408 1.164a.07.07 0 00.066.093h1.754a.07.07 0 00.063-.097l-.497-1.164a.07.07 0 00-.063-.042h-.85zm-.281-3.206a.069.069 0 01.063-.097h1.564a.07.07 0 01.063.041l2.511 5.69a.07.07 0 01-.064.098h-1.563a.073.073 0 01-.064-.04l-2.51-5.692zm.543 1.754a.065.065 0 01.002.053l-1.521 3.897a.068.068 0 01-.064.045h-1.618a.07.07 0 01-.065-.095l2.332-5.708c.024-.057.103-.058.127-.002l.807 1.81zm-14.011-1.85H16.062c.039 0 .057 0 .073.006a.07.07 0 01.03.031c.007.014.007.034.007.073v5.607c0 .038 0 .058-.007.073a.072.072 0 01-.03.03c-.016.008-.034.008-.073.008H14.53c-.039 0-.059 0-.074-.008a.079.079 0 01-.03-.03c-.007-.015-.007-.035-.007-.073v-4.358h-.864c-.038 0-.058 0-.072-.008a.065.065 0 01-.031-.03c-.007-.015-.007-.034-.007-.072v-1.139c0-.039 0-.059.007-.073a.062.062 0 01.031-.03c.014-.008.034-.008.072-.008zm-3.221.037c-.007.014-.007.034-.007.073v5.607c0 .038 0 .058.007.073a.075.075 0 00.031.03c.014.008.034.008.073.008h1.532c.039 0 .058 0 .073-.008a.075.075 0 00.031-.03c.006-.015.006-.035.006-.073v-4.358h.865c.038 0 .057 0 .072-.008a.072.072 0 00.03-.03c.008-.015.008-.034.008-.072v-1.139c0-.039 0-.059-.008-.073a.07.07 0 00-.03-.03c-.015-.008-.034-.008-.072-.008h-2.507c-.039 0-.059 0-.073.007a.071.071 0 00-.031.031zm-.007-7.839c0-.195 0-.29.038-.365a.34.34 0 01.151-.15c.074-.039.171-.039.364-.039h92.421c.193 0 .29 0 .364.038a.34.34 0 01.151.151c.038.074.038.17.038.365v.254c0 .193 0 .29-.038.364a.344.344 0 01-.151.151c-.074.037-.171.037-.364.037H10.88c-.193 0-.29 0-.364-.037a.344.344 0 01-.151-.15c-.038-.075-.038-.172-.038-.365v-.254zm45.567-24.319c.041.09.043.192.007.284l-7.107 18.222a.367.367 0 01-.343.234H40.96a.368.368 0 01-.34-.507L51.627 8.715a.208.208 0 01.382-.005l3.885 8.715zm-1.88-8.867a.208.208 0 01.189-.292h7.733c.144 0 .276.085.335.218l12.107 27.163a.368.368 0 01-.336.518h-7.484a.366.366 0 01-.336-.218L54.014 8.558zm41.687-.292a.367.367 0 00-.367.367V18.6h-3.938a.207.207 0 00-.207.207v6.82c0 .113.093.207.207.207h3.938v9.964c0 .204.164.368.367.368h7.555a.367.367 0 00.367-.368V8.633a.367.367 0 00-.367-.367h-7.555zm-19.02.367c0-.203.165-.367.368-.367h7.555c.203 0 .367.164.367.367V18.6h3.938c.115 0 .208.093.208.207v6.82a.208.208 0 01-.208.207h-3.938v9.964a.367.367 0 01-.367.368h-7.555a.368.368 0 01-.368-.368V8.633zM29.015 35.797V15.5h-3.938a.208.208 0 01-.208-.207V8.473c0-.114.093-.207.208-.207h11.86c.203 0 .368.164.368.367v27.164a.368.368 0 01-.368.368h-7.555a.367.367 0 01-.367-.368zM10.363 8.633c0-.203.164-.367.367-.367h11.86c.114 0 .207.093.207.207v6.82a.207.207 0 01-.207.206h-3.937v20.298a.368.368 0 01-.369.368H10.73a.367.367 0 01-.367-.368V8.633zM54.87 24.798a.207.207 0 00-.194.136l-2.059 5.57a.367.367 0 00.344.495h8.747a.368.368 0 00.335-.52l-2.508-5.558a.208.208 0 00-.189-.123H54.87zM.12.602C0 .838 0 1.147 0 1.765V60.41c0 .618 0 .927.12 1.163.106.207.275.376.482.481.236.121.545.121 1.163.121h110.456c.618 0 .927 0 1.163-.12.207-.106.376-.275.482-.482.12-.236.12-.545.12-1.163V1.765c0-.618 0-.927-.12-1.163a1.106 1.106 0 00-.482-.482c-.236-.12-.545-.12-1.163-.12H1.765C1.147 0 .838 0 .602.12A1.106 1.106 0 00.12.602z"/></g></svg>
