<?xml version="1.0" encoding="UTF-8"?>
<svg width="11px" height="16px" viewBox="0 0 11 16" version="1.1" xmlns="http://www.w3.org/2000/svg" xmlns:xlink="http://www.w3.org/1999/xlink">
    <!-- Generator: Sketch 62 (91390) - https://sketch.com -->
    <title>Group 28</title>
    <desc>Created with Sketch.</desc>
    <g id="1600" stroke="none" stroke-width="1" fill="none" fill-rule="evenodd">
        <g id="Property_card" transform="translate(-1261.000000, -210.000000)">
            <g id="Group-32" transform="translate(1261.000000, 209.000000)">
                <g id="Group-5" transform="translate(0.000000, 1.000000)">
                    <g id="Group-28">
                        <path d="M11,5.2173913 C11,9.94921739 5.5,16 5.5,16 C5.5,16 0,10.061913 0,5.2173913 C0,2.33565217 2.46216667,0 5.5,0 C8.53746667,0 11,2.33565217 11,5.2173913 Z" id="Stroke-1" fill="#FF2D23"></path>
                        <path d="M5.5,2.46153846 C6.51230556,2.46153846 7.33333333,3.28830769 7.33333333,4.30769231 C7.33333333,5.32707692 6.51230556,6.15384615 5.5,6.15384615 C4.48769444,6.15384615 3.66666667,5.32707692 3.66666667,4.30769231 C3.66666667,3.28830769 4.48769444,2.46153846 5.5,2.46153846 Z" id="Stroke-3" fill="#2C2E3E"></path>
                    </g>
                </g>
            </g>
        </g>
    </g>
</svg>