<svg width="15" height="22" viewBox="0 0 15 22" xmlns="http://www.w3.org/2000/svg">
<path fill-rule="evenodd" clip-rule="evenodd" d="M9.99122 16.211C11.8499 13.343 13.5 9.95683 13.5 7.17391C13.5 4.10215 10.8772 1.5 7.5 1.5C4.12239 1.5 1.5 4.10209 1.5 7.17391C1.5 10.0365 3.15325 13.4251 5.00627 16.2653C5.90762 17.6468 6.81153 18.8322 7.49127 19.673C7.49389 19.6697 7.49652 19.6664 7.49915 19.6631C8.1804 18.8089 9.0871 17.6061 9.99122 16.211ZM8.47621 20.842C10.5071 18.3318 15 12.2096 15 7.17391C15 3.21152 11.642 0 7.5 0C3.3575 0 0 3.21152 0 7.17391C0 12.3219 4.47955 18.368 6.51475 20.8493C7.11297 21.5787 7.5 22 7.5 22C7.5 22 7.88313 21.575 8.47621 20.842Z"/>
<path fill-rule="evenodd" clip-rule="evenodd" d="M7.5 4.75C6.5338 4.75 5.75 5.5338 5.75 6.5C5.75 7.4662 6.5338 8.25 7.5 8.25C8.4662 8.25 9.25 7.4662 9.25 6.5C9.25 5.5338 8.4662 4.75 7.5 4.75ZM4.25 6.5C4.25 4.70537 5.70537 3.25 7.5 3.25C9.29463 3.25 10.75 4.70537 10.75 6.5C10.75 8.29463 9.29463 9.75 7.5 9.75C5.70537 9.75 4.25 8.29463 4.25 6.5Z"/>
</svg>
