<?xml version="1.0" encoding="utf-8"?>
<!-- Generator: Adobe Illustrator 23.0.2, SVG Export Plug-In . SVG Version: 6.00 Build 0)  -->
<svg version="1.1" id="Layer_1" xmlns="http://www.w3.org/2000/svg" xmlns:xlink="http://www.w3.org/1999/xlink" x="0px" y="0px"
	 viewBox="0 0 23 23" style="enable-background:new 0 0 23 23;" xml:space="preserve">
<style type="text/css">
	.st0{opacity:0.4;fill-rule:evenodd;clip-rule:evenodd;fill:#8F95AB;enable-background:new    ;}
	.st1{fill-rule:evenodd;clip-rule:evenodd;fill:#8F95AB;}
</style>
<g>
	<path class="st0" d="M6.1,12.5v-2.2c0-2.1-0.9-3-3-3H3V5.7C3,5,3.5,4.5,4.2,4.5h14.6C19.5,4.5,20,5,20,5.7v1.5h-0.2
		c-2,0-3,1.6-3,3.1v2.2H6.1z"/>
	<path class="st1" d="M18.4,18.5c-0.1,0-0.2-0.1-0.2-0.2v-1H4.8v1c0,0.1-0.1,0.2-0.2,0.2H3.2c-0.1,0-0.2-0.1-0.2-0.2v-1H2.2
		c-0.6,0-1.2-0.5-1.2-1.1v-6.1c0-0.5,0.2-0.6,0.8-0.6h1.9c0.5,0,0.8,0.3,0.8,0.8v3.2c0,0.4,0.4,0.8,0.8,0.8h12.6
		c0.5,0,0.8-0.4,0.8-0.8v-2.8c0-0.3,0.1-1.1,0.9-1.1h1.6c0.7,0,0.8,0.6,0.8,1.1v5.7c0,0.6-0.5,1.1-1.2,1.1H20v1
		c0,0.1-0.1,0.2-0.2,0.2H18.4z"/>
</g>
</svg>
