<svg width="16" height="23" xmlns="http://www.w3.org/2000/svg"><path fill-rule="evenodd" clip-rule="evenodd" d="M8 .25c-2.653 0-4.75 2.236-4.75 4.925v7.65c0 2.689 2.097 4.925 4.75 4.925 2.654 0 4.75-2.237 4.75-4.925v-7.65C12.75 2.485 10.654.25 8 .25zM4.75 5.175C4.75 3.253 6.235 1.75 8 1.75c1.766 0 3.25 1.503 3.25 3.425v7.65c0 1.922-1.485 3.425-3.25 3.425s-3.25-1.504-3.25-3.425v-7.65z"/><path d="M1.75 13a6.25 6.25 0 0012.5 0h1.5a7.75 7.75 0 01-7.25 7.734V23h-1v-2.266A7.75 7.75 0 01.25 13h1.5z"/></svg>
