<svg width="213" height="177" viewBox="0 0 213 177" fill="none" xmlns="http://www.w3.org/2000/svg">
<path fill-rule="evenodd" clip-rule="evenodd" d="M87.5 176C134.72 176 173 137.72 173 90.5C173 43.2797 134.72 5 87.5 5C40.2797 5 2 43.2797 2 90.5C2 137.72 40.2797 176 87.5 176Z" fill="#8F95AC" fill-opacity="0.08"/>
<mask id="mask0" mask-type="alpha" maskUnits="userSpaceOnUse" x="105" y="23" width="108" height="97">
<path fill-rule="evenodd" clip-rule="evenodd" d="M105.019 23.0325H212.669V119.85H105.019V23.0325Z" fill="white"/>
</mask>
<g mask="url(#mask0)">
<path fill-rule="evenodd" clip-rule="evenodd" d="M105.019 93.9753C105.019 93.9753 117.722 50.9964 131.771 54.5094C137.069 55.8334 135.48 77.5533 143.161 64.3093C150.842 51.0653 155.081 22.9894 165.146 35.9674C174.912 48.5614 180.773 32.2594 196.136 25.3724C216.234 16.3634 218.651 35.7034 199.844 43.9134C181.039 52.1244 171.783 61.8523 181.303 64.3093C189.514 66.4283 200.109 69.6073 191.104 77.2883C182.098 84.9693 147.929 86.0293 148.989 93.7104C150.048 101.392 167.794 111.987 144.486 118.873C121.176 125.76 105.019 93.9753 105.019 93.9753" fill="#FF2D23"/>
</g>
<path fill-rule="evenodd" clip-rule="evenodd" d="M67.8496 20.5036C67.8496 20.5036 66.6756 32.5346 68.4396 40.5596C70.7986 51.2956 76.9656 54.2036 76.9656 54.2036L77.0516 61.2056C77.0516 61.2056 63.4846 59.4366 52.5126 64.9816C41.5396 70.5256 37.2596 79.1726 35.7436 85.9986C35.7436 85.9986 31.1586 65.3356 27.8546 59.6726C24.5516 54.0096 19.7136 46.9306 18.8886 45.8686C18.0626 44.8076 14.1686 41.5036 15.5846 45.0426C17.0006 48.5816 20.0626 53.9006 18.1196 52.7746C16.1746 51.6496 4.37657 40.0876 2.37057 39.1446C0.365568 38.1996 -1.16843 39.3796 2.13557 43.3916C5.43857 47.4016 16.5296 57.0766 18.8886 62.5036C21.2476 67.9306 22.6636 69.3466 22.8996 71.7056L23.0176 73.3576L21.2326 73.3346C21.2326 73.3346 21.2876 97.8296 21.9556 106.983C22.7816 118.309 28.6806 149.337 41.8946 149.337C41.8946 149.337 48.3826 147.331 49.2086 143.084L48.9013 173.48L74.669 175.691L111.872 176L111.031 133.056C111.031 133.056 118.114 155.384 125.778 155.825C131.913 156.18 139.7 133.409 142.885 126.567C146.071 119.724 154.801 87.9866 156.806 84.2116C158.812 80.4366 168.487 71.5886 178.279 67.4586C188.071 63.3296 194.324 60.6156 192.672 58.3746C191.021 56.1326 171.436 65.3356 170.492 65.6896C169.548 66.0426 166.953 67.3406 168.605 65.0996C170.256 62.8576 176.155 57.9026 174.857 56.7226C173.56 55.5426 155.626 70.1726 153.385 73.3576C152.493 74.6256 148.62 78.5816 144.655 84.8016C138.659 94.2086 132.054 106.746 132.054 106.746C132.054 106.746 126.109 79.6296 113.508 70.5256C100.693 61.2686 88.9676 60.8526 88.9676 60.8526C88.9676 60.8526 88.0246 49.0546 89.0856 46.6946C90.1476 44.3346 95.8106 34.4246 94.0406 27.8176C92.2716 21.2106 70.6391 0.30365 70.6391 0.30365" fill="white"/>
<path d="M69.0108 60.861C69.0108 60.861 42.5988 60.288 35.7428 85.999" stroke="#2C2E3E" stroke-width="0.75" stroke-linecap="round"/>
<path d="M132.054 106.746C124.387 67.4548 101.367 62.8018 89.7097 61.1138" stroke="#2C2E3E" stroke-width="0.75" stroke-linecap="round"/>
<path d="M76.9658 54.2038C76.9658 54.2038 77.2908 62.1598 77.1278 63.9458C76.9658 65.7308 82.6488 71.2518 89.7918 64.4328C89.7918 64.4328 87.8158 52.6508 88.7898 47.6188" stroke="#2C2E3E" stroke-width="0.75" stroke-linecap="round"/>
<path fill-rule="evenodd" clip-rule="evenodd" d="M89.4414 61.0944C89.7174 62.8474 89.7924 64.4324 89.7924 64.4324C82.6484 71.2514 76.9654 65.7314 77.1284 63.9464C77.1824 63.3454 77.1594 61.6504 77.1344 60.1944C72.3794 60.3474 68.6014 60.4914 68.6014 60.4914C71.8184 78.0364 78.9154 88.4614 78.9154 88.4614C87.4084 83.0604 101.158 63.6204 101.158 63.6204C97.7134 62.6644 93.6594 61.5714 89.4414 61.0944" fill="#2C2E3E"/>
<path fill-rule="evenodd" clip-rule="evenodd" d="M68.2119 22.195C68.2119 22.195 65.9119 37.878 70.3029 46.661C74.6939 55.443 80.9679 56.488 84.7319 52.933C88.4949 49.379 92.2589 41.432 92.4689 33.068C92.6779 24.704 90.1679 24.704 85.1489 24.495C80.1309 24.286 71.1399 24.704 68.2119 22.195Z" stroke="#2C2E3E" stroke-width="0.75" stroke-linecap="round"/>
<path fill-rule="evenodd" clip-rule="evenodd" d="M98.7217 22.0564C96.7737 22.5434 97.5857 20.1084 98.5607 14.5884C99.5337 9.0684 95.9617 11.8274 91.9037 11.5034C87.8447 11.1784 91.7407 6.1454 88.4937 3.2234C85.2467 0.300399 81.9987 3.2234 78.9147 5.6584C75.8297 8.0934 76.6407 5.6584 71.1207 3.7094C65.6007 1.7614 63.6527 9.2304 63.3267 13.6144C63.0027 17.9974 65.2767 17.1864 65.4387 21.8944C65.6007 26.6034 67.0617 32.6104 67.0617 32.6104C67.0617 32.6104 67.2697 32.7644 67.6287 33.0254C67.4877 27.1364 68.2117 22.1954 68.2117 22.1954C71.1397 24.7034 80.1307 24.2854 85.1497 24.4944C90.1677 24.7034 92.6777 24.7034 92.4677 33.0684C92.3657 37.1834 91.3997 41.1934 89.9997 44.6324C90.0367 44.6274 90.0797 44.6294 90.1177 44.6244C95.9617 43.8134 99.6967 29.5254 101.32 26.1164C102.944 22.7054 100.67 21.5704 98.7217 22.0564" fill="#2C2E3E"/>
<path d="M122.521 131.081C122.521 131.081 130.799 103.986 146.855 81.6588C146.855 81.6588 154.381 84.9208 155.887 85.6728C155.887 85.6728 141.578 140.222 128.348 154.636C123.291 160.145 114.977 145.896 111.239 132.545" stroke="#2C2E3E" stroke-width="0.75" stroke-linecap="round"/>
<path d="M146.854 81.6589C146.854 81.6589 153.471 72.3489 159.309 67.9779C165.671 63.2139 170.759 58.9809 173.212 57.4359C174.451 56.6569 177.029 56.1639 172.304 61.6169C172.304 61.6169 169.929 63.9979 168.168 65.7299C167.309 66.5749 167.035 67.2349 168.668 66.4329C174.087 63.7729 186.665 58.6419 190.255 57.8259C193.569 57.0729 194.659 60.1629 187.752 63.0709C175.158 68.3739 160.151 76.6409 155.886 85.6729" stroke="#2C2E3E" stroke-width="0.75" stroke-linecap="round"/>
<path d="M23.203 72.9558C22.286 64.3268 12.24 52.5128 3.42305 44.5608C-1.41195 40.2018 0.365045 37.9778 2.86805 39.5428C5.58105 41.2388 14.433 49.0438 18.119 52.7748C19.229 53.8998 19.194 53.2798 18.73 52.3418C17.781 50.4168 16.514 47.7848 16.514 47.7848C14.194 41.9608 15.954 43.3218 16.963 44.0958C18.682 45.4138 21.732 50.4298 25.631 56.1298C29.924 62.4048 32.077 71.4488 32.077 71.4488" stroke="#2C2E3E" stroke-width="0.75" stroke-linecap="round"/>
<path d="M43.0889 123.218C37.7019 92.1195 32.0259 71.1925 32.0259 71.1925C32.0259 71.1925 22.5219 73.0565 21.2329 73.3345C21.2329 73.3345 19.3369 106.812 26.1929 129.584C26.1929 129.584 36.9109 161.016 49.1539 144.365" stroke="#2C2E3E" stroke-width="0.75" stroke-linecap="round"/>
<path d="M48.7207 101.915C48.7207 101.915 49.4547 146.478 49.2097 169.251" stroke="#2C2E3E" stroke-width="0.75" stroke-linecap="round"/>
<path d="M110.972 107.177C110.972 107.177 111.224 162.714 111.773 172.598" stroke="#2C2E3E" stroke-width="0.75" stroke-linecap="round"/>
</svg>
