<svg width="18" height="20" viewBox="0 0 18 20" fill="none" xmlns="http://www.w3.org/2000/svg">
<path d="M0.686453 12.8623C0.519417 13.2656 0.405265 13.8878 0.608997 14.4479C0.715781 14.7416 0.91065 15.0164 1.22065 15.2123C1.5261 15.4054 1.9081 15.5 2.35697 15.5H15.643C16.0919 15.5 16.4739 15.4054 16.7794 15.2123C17.0893 15.0164 17.2842 14.7416 17.391 14.4479C17.5947 13.8878 17.4806 13.2656 17.3135 12.8623C16.8086 11.6432 16.111 11.0971 15.5822 10.683C15.5572 10.6635 15.5326 10.6443 15.5085 10.6253C15.2409 10.4148 15.0686 10.2657 14.9503 10.0846C14.843 9.9203 14.7606 9.69674 14.7606 9.31373V5.05671C14.7606 3.00874 13.5329 1.84953 12.2351 1.23054C10.9598 0.622318 9.56377 0.5 9 0.5C8.43623 0.5 7.04016 0.622318 5.76492 1.23054C4.46712 1.84953 3.23938 3.00874 3.23938 5.05671V9.31373C3.23938 9.69674 3.15697 9.9203 3.04966 10.0846C2.93143 10.2657 2.75915 10.4148 2.49152 10.6253C2.46735 10.6443 2.44278 10.6635 2.41782 10.683C1.88896 11.0971 1.19135 11.6432 0.686453 12.8623Z" stroke-linecap="round" stroke-linejoin="round"/>
<path d="M12 16C12 17.6561 10.6568 19 9 19C7.34317 19 6 17.6565 6 16" stroke-linecap="round" stroke-linejoin="round"/>
</svg>
