<svg width="22" height="22" viewBox="0 0 22 22" xmlns="http://www.w3.org/2000/svg">
<path d="M12.3534 9.96649L13.5054 3.05149C13.7524 1.57049 14.9874 0.500488 16.4694 0.500488H16.7984C18.1984 0.500488 19.4324 1.57049 19.7614 3.05149L21.8204 14.7405C22.0674 16.2225 20.6674 17.2925 19.2684 17.2925H14.0824C13.5884 17.2925 13.1764 17.2105 12.7654 16.9635C12.4354 16.7985 12.1894 16.6335 12.0244 16.3865" />
<path fill-rule="evenodd" clip-rule="evenodd" d="M11.201 9.30776V8.89576C11.201 6.67376 9.39 4.78076 7.085 4.78076C5.192 4.78076 3.628 6.09776 3.134 7.82576C1.57 8.56676 0.5 10.2958 0.5 12.3528C0.5 15.0698 2.311 17.2098 4.616 17.2098H9.555C11.777 17.2098 13.671 15.3168 13.671 13.0118C13.753 11.4478 12.682 9.96676 11.201 9.30776Z" />
<path d="M16.6338 11.3655V21.0785" />
<path d="M7.25 11.3655V21.0785" />
<path d="M7.168 15.4817L3.875 12.1067" />
<path d="M7.25 15.4817L10.625 12.1067" />
</svg>
