<svg width="30" height="18" viewBox="0 0 30 18" xmlns="http://www.w3.org/2000/svg">
<path d="M28.087 13.6907C29.406 13.3247 29.233 11.6927 28.776 10.2387C28.372 8.9477 26.619 3.2297 25.739 1.9677C25.259 1.2777 24.676 1.0107 24.316 0.935702C21.394 0.324702 16.221 0.535702 16.221 0.535702C13.822 0.535702 12.49 1.7347 12.49 1.7347L6.69402 5.9317H5.69502C5.09602 5.9317 2.89802 7.5297 2.43202 8.1957C1.96502 8.8617 1.29902 10.5947 1.29902 10.5947C0.566023 10.5947 0.499023 11.3937 0.499023 11.3937V12.7257C0.499023 14.0587 1.29902 13.9247 1.29902 13.9247H2.56502" />
<path d="M22.0163 13.9912H9.02734" />
<path d="M6.69531 5.93127L23.8663 5.46527C23.8663 5.46527 24.8193 5.49627 24.4893 4.44427C24.2643 3.72827 22.9123 0.874268 22.9123 0.874268" />
<path d="M2.22461 8.68764C2.22461 8.68764 5.02561 8.81164 6.07561 7.55064C6.07561 7.55064 7.05061 6.52264 5.69661 5.93164" />
<path d="M10.9756 11.7394L17.1896 10.9284C17.1896 10.9284 18.5396 10.7484 18.9906 10.1784C19.4406 9.60838 20.4306 8.31738 20.4306 8.31738" />
<path d="M8.90625 13.9607H21.8442" />
<path fill-rule="evenodd" clip-rule="evenodd" d="M8.78541 13.4655C8.78541 15.1485 7.42141 16.5125 5.73841 16.5125C4.05541 16.5125 2.69141 15.1485 2.69141 13.4655C2.69141 11.7825 4.05541 10.4185 5.73841 10.4185C7.42141 10.4185 8.78541 11.7825 8.78541 13.4655Z" />
<path fill-rule="evenodd" clip-rule="evenodd" d="M6.91145 13.4655C6.91145 14.1135 6.38645 14.6385 5.73845 14.6385C5.09045 14.6385 4.56445 14.1135 4.56445 13.4655C4.56445 12.8175 5.09045 12.2915 5.73845 12.2915C6.38645 12.2915 6.91145 12.8175 6.91145 13.4655Z" fill="#8F95AC"/>
<path fill-rule="evenodd" clip-rule="evenodd" d="M26.1087 13.4655C26.1087 14.1135 25.5837 14.6385 24.9347 14.6385C24.2867 14.6385 23.7607 14.1135 23.7607 13.4655C23.7607 12.8175 24.2867 12.2915 24.9347 12.2915C25.5837 12.2915 26.1087 12.8175 26.1087 13.4655Z" fill="#8F95AC"/>
<path fill-rule="evenodd" clip-rule="evenodd" d="M27.9817 13.4655C27.9817 15.1485 26.6177 16.5125 24.9347 16.5125C23.2527 16.5125 21.8877 15.1485 21.8877 13.4655C21.8877 11.7825 23.2527 10.4185 24.9347 10.4185C26.6177 10.4185 27.9817 11.7825 27.9817 13.4655Z" />
</svg>
