<svg width="10" height="17" viewBox="0 0 10 17" xmlns="http://www.w3.org/2000/svg">
<path fill-rule="evenodd" clip-rule="evenodd" d="M5.71386 3.049C6.55586 3.049 7.23786 2.367 7.23786 1.525C7.23786 0.683 6.55586 0 5.71386 0C4.87186 0 4.18986 0.683 4.18986 1.525C4.18986 2.367 4.87186 3.049 5.71386 3.049ZM9.44136 8.135L7.67036 7.272L7.67636 7.264C6.98254 6.92866 6.81677 6.15805 6.72768 5.7439C6.70891 5.65664 6.69354 5.58521 6.67736 5.537C6.66768 5.50764 6.65598 5.46684 6.64171 5.41702L6.6417 5.41699C6.52176 4.9984 6.21949 3.94353 5.39736 3.696C4.15636 3.321 3.01336 4.316 3.01336 4.316L1.33736 5.729C1.02636 5.974 0.885356 6.228 0.822356 6.411C0.801356 6.461 0.788356 6.514 0.780356 6.57C0.773356 6.606 0.770356 6.634 0.769356 6.653L0.482356 9.185C0.445356 9.547 0.708356 9.871 1.07136 9.908C1.43336 9.947 1.75736 9.683 1.79536 9.321L2.00036 7.517L2.01236 7.526C2.08836 6.834 2.45836 6.558 2.45836 6.558L3.39336 5.806L3.40036 5.812L2.77936 8.864L4.08436 10.936L7.03536 15.656C7.30636 16.09 7.87836 16.222 8.31236 15.95C8.74636 15.679 8.87836 15.108 8.60636 14.673L5.21036 9.24L5.67836 6.957C5.76353 7.1333 5.86539 7.33903 5.96546 7.54115L5.96561 7.54146L5.96836 7.547C6.17436 7.96 6.61636 8.206 6.79136 8.291C6.82936 8.322 6.87036 8.349 6.91536 8.37L8.86236 9.321C9.19036 9.48 9.58536 9.344 9.74536 9.017C9.90436 8.689 9.76836 8.294 9.44136 8.135ZM1.68736 12.7808C2.08336 12.2688 2.10636 11.9778 2.10636 11.9778L2.58336 10.0358L3.73536 11.8268L3.54836 12.6758C3.43236 13.1538 3.21136 13.3738 3.21136 13.3738L2.89836 13.8028L2.89636 13.8018L1.41936 15.8088C1.16436 16.1598 0.673356 16.2368 0.323356 15.9818C-0.0276438 15.7268 -0.104644 15.2368 0.150356 14.8858L1.69536 12.7878L1.68736 12.7808Z"/>
</svg>
