<svg width="14" height="14" viewBox="0 0 14 14" xmlns="http://www.w3.org/2000/svg">
<path fill-rule="evenodd" clip-rule="evenodd" d="M14 11.0568C14 11.2358 13.9669 11.4695 13.9006 11.7578C13.8343 12.0462 13.7647 12.2732 13.6918 12.4389C13.5526 12.7704 13.1482 13.1217 12.4787 13.4929C11.8556 13.831 11.2391 14 10.6293 14C10.4503 14 10.2763 13.9884 10.1072 13.9652C9.93821 13.942 9.74763 13.9006 9.53551 13.8409C9.32339 13.7812 9.16595 13.7332 9.06321 13.6967C8.96047 13.6603 8.77652 13.5923 8.51136 13.4929C8.24621 13.3935 8.08381 13.3338 8.02415 13.3139C7.37453 13.0819 6.7945 12.8068 6.28409 12.4886C5.43561 11.965 4.55895 11.2507 3.65412 10.3459C2.74929 9.44105 2.03504 8.56439 1.51136 7.71591C1.19318 7.2055 0.918084 6.62547 0.68608 5.97585C0.666193 5.91619 0.606534 5.75379 0.507102 5.48864C0.40767 5.22348 0.339729 5.03953 0.303267 4.93679C0.266805 4.83405 0.21875 4.67661 0.159091 4.46449C0.0994318 4.25237 0.0579986 4.06179 0.0348011 3.89276C0.0116037 3.72372 0 3.54972 0 3.37074C0 2.76089 0.169034 2.14442 0.507102 1.52131C0.878311 0.851803 1.22964 0.447443 1.56108 0.308239C1.7268 0.235325 1.95384 0.165723 2.24219 0.0994318C2.53054 0.0331406 2.7642 0 2.94318 0C3.03598 0 3.10558 0.00994318 3.15199 0.0298295C3.27131 0.0696023 3.44697 0.321493 3.67898 0.785511C3.75189 0.911462 3.85132 1.09044 3.97727 1.32244C4.10322 1.55445 4.21922 1.76491 4.32528 1.95384C4.43135 2.14276 4.53409 2.32007 4.63352 2.4858C4.65341 2.51231 4.71141 2.59517 4.80753 2.73438C4.90365 2.87358 4.9749 2.99124 5.02131 3.08736C5.06771 3.18348 5.09091 3.27794 5.09091 3.37074C5.09091 3.50331 4.99645 3.66903 4.80753 3.8679C4.61861 4.06676 4.41311 4.24905 4.19105 4.41477C3.96899 4.5805 3.76349 4.75615 3.57457 4.94176C3.38565 5.12737 3.29119 5.27983 3.29119 5.39915C3.29119 5.45881 3.30777 5.53338 3.34091 5.62287C3.37405 5.71236 3.40223 5.7803 3.42543 5.8267C3.44862 5.87311 3.49503 5.95265 3.56463 6.06534C3.63423 6.17803 3.67235 6.24101 3.67898 6.25426C4.18277 7.1624 4.75947 7.94128 5.40909 8.59091C6.05871 9.24053 6.8376 9.81723 7.74574 10.321C7.75899 10.3276 7.82197 10.3658 7.93466 10.4354C8.04735 10.505 8.12689 10.5514 8.1733 10.5746C8.2197 10.5978 8.28764 10.6259 8.37713 10.6591C8.46662 10.6922 8.54119 10.7088 8.60085 10.7088C8.72017 10.7088 8.87263 10.6143 9.05824 10.4254C9.24385 10.2365 9.4195 10.031 9.58523 9.80895C9.75095 9.58688 9.93324 9.38139 10.1321 9.19247C10.331 9.00355 10.4967 8.90909 10.6293 8.90909C10.7221 8.90909 10.8165 8.93229 10.9126 8.97869C11.0088 9.02509 11.1264 9.09635 11.2656 9.19247C11.4048 9.28858 11.4877 9.34659 11.5142 9.36648C11.6799 9.46591 11.8572 9.56865 12.0462 9.67472C12.2351 9.78077 12.4456 9.89678 12.6776 10.0227C12.9096 10.1487 13.0885 10.2481 13.2145 10.321C13.6785 10.553 13.9304 10.7287 13.9702 10.848C13.9901 10.8944 14 10.964 14 11.0568" fill="#FF2D23"/>
</svg>
