<?xml version="1.0" encoding="utf-8"?>
<!-- Generator: Adobe Illustrator 23.0.2, SVG Export Plug-In . SVG Version: 6.00 Build 0)  -->
<svg version="1.1" id="Layer_1" xmlns="http://www.w3.org/2000/svg" xmlns:xlink="http://www.w3.org/1999/xlink" x="0px" y="0px"
	 viewBox="0 0 23 23" style="enable-background:new 0 0 23 23;" xml:space="preserve">
<style type="text/css">
	.st0{fill:none;}
	.st1{opacity:0.4;fill-rule:evenodd;clip-rule:evenodd;fill:#8F95AB;enable-background:new    ;}
	.st2{fill-rule:evenodd;clip-rule:evenodd;fill:#8F95AB;}
	.st3{fill:none;stroke:#8F95AB;stroke-linecap:round;stroke-linejoin:round;stroke-miterlimit:10;}
</style>
<rect x="-802" y="-1515" class="st0" width="1600" height="3053"/>
<path class="st1" d="M3.3,2H1.6C0.7,2,0,2.6,0,3.4v10.1C0,14.4,0.7,15,1.6,15h19.8c0.9,0,1.6-0.6,1.6-1.4V3.4C23,2.6,22.3,2,21.4,2
	H3.3z"/>
<path class="st2" d="M14,19c0,1.1-0.9,2-2,2c-1.1,0-2-0.9-2-2s0.9-2,2-2C13.1,17,14,17.9,14,19"/>
<line class="st3" x1="4" y1="10.5" x2="9" y2="10.5"/>
<line class="st3" x1="4" y1="6.5" x2="12" y2="6.5"/>
</svg>
