<?xml version="1.0" encoding="utf-8"?>
<!-- Generator: Adobe Illustrator 23.0.2, SVG Export Plug-In . SVG Version: 6.00 Build 0)  -->
<svg version="1.1" id="Layer_1" xmlns="http://www.w3.org/2000/svg" xmlns:xlink="http://www.w3.org/1999/xlink" x="0px" y="0px"
	 viewBox="0 0 130 130" style="enable-background:new 0 0 130 130;" xml:space="preserve">
<style type="text/css">
	.st0{fill-rule:evenodd;clip-rule:evenodd;fill:#232637;}
	.st1{fill-rule:evenodd;clip-rule:evenodd;fill:#2C2E3E;}
	.st2{opacity:0.35;fill-rule:evenodd;clip-rule:evenodd;fill:#1E2030;}
</style>
<g>
	<path class="st0" d="M109,61.5c0,25.7-21,46.5-47,46.5S15,87.2,15,61.5S36,15,62,15S109,35.8,109,61.5z"/>
	<path class="st1" d="M97.9,32.2l0.3-0.4C89.7,21.8,76.6,15,62.4,15C36.2,15,15,36.1,15,62.1c0,14.4,7.1,26.8,17.3,35.4
		c11-6.3,24-16.5,37.4-30C81.8,55.2,91.6,42.8,97.9,32.2z"/>
	<path class="st1" d="M84.8,24.8c12.1-7.4,21.7-10.2,25.5-6.4c7,7-8.2,33.5-33.9,59.2c-25.7,25.7-52.2,40.9-59.2,33.9
		c-3.7-3.7-0.8-13.3,6-24.7l-3.5-9.2C3,100.6-4.4,120.2,2.7,127.3c10.2,10.2,46.3-9.5,80.7-43.9c34.4-34.4,54.1-70.6,43.9-80.7
		c-7.2-7.2-27.2,0.5-50.5,17.6L84.8,24.8z"/>
	<path class="st0" d="M47.1,39.2c8.1-8.1,15.1-16.2,20.8-23.8c-1.7-0.2-3.3-0.3-5-0.3C36.4,15,15,36.1,15,62c0,0.1,0,0.3,0,0.4
		l2.6,1.6C26.8,57.8,37,49.3,47.1,39.2z"/>
	<path class="st2" d="M37.8,21.7c-13.3,7.7-22.7,23.1-22.7,39.9c0,24.8,19.5,44.7,43.6,46.2c2.9,0.2,6.3,0.2,9.5-0.2
		c2.5-0.3,4.9-0.8,6.9-1.5C35.2,78.8,34.7,39,37.8,21.7z"/>
</g>
</svg>
