<svg width="25" height="23" viewBox="0 0 25 23" xmlns="http://www.w3.org/2000/svg">
<path d="M12.1832 6.85962L6.18318 12.8586H0.778183C0.376183 12.8586 0.528183 12.5746 0.528183 12.5746L3.03418 8.28863C3.03418 8.28863 3.25718 7.97563 3.63718 7.97563H9.20118L12.2322 5.01562"  stroke-linecap="round"/>
<path d="M12.2432 6.83136L18.3532 12.8584H23.7592C24.1612 12.8584 24.0092 12.5744 24.0092 12.5744L21.5032 8.28836C21.5032 8.28836 21.2792 7.97636 20.9002 7.97636H15.2532L12.2642 5.04736"  stroke-linecap="round"/>
<path d="M12.2119 5.18692V0.513916"  stroke-linecap="round"/>
<path d="M12.2793 0.500244H16.7263C16.8913 0.500244 16.9843 0.651244 16.8553 0.827244L15.8623 2.12424L16.9153 3.63124C17.0433 3.83924 16.9263 3.92924 16.7613 3.92924H12.2793"  stroke-linecap="round"/>
<path fill-rule="evenodd" clip-rule="evenodd" d="M14.2635 12.5246C14.2635 13.6166 13.3785 14.5016 12.2865 14.5016C11.1955 14.5016 10.3105 13.6166 10.3105 12.5246C10.3105 11.4326 11.1955 10.5476 12.2865 10.5476C13.3785 10.5476 14.2635 11.4326 14.2635 12.5246Z"  stroke-linecap="round"/>
<path d="M22.9682 12.9114V21.8114C22.9682 22.0394 22.7832 22.2244 22.5562 22.2244H2.02823C1.80023 22.2244 1.61523 22.0394 1.61523 21.8114V12.9114"  stroke-linecap="round"/>
<path d="M10.4668 21.9915V17.1645C10.4668 17.0115 10.5908 16.8875 10.7428 16.8875H13.8298C13.9838 16.8875 14.1078 17.0115 14.1078 17.1645V21.9915"  stroke-linecap="round"/>
<path fill-rule="evenodd" clip-rule="evenodd" d="M7.06813 19.0481H4.86913C4.68513 19.0481 4.53613 18.9001 4.53613 18.7161V15.9121C4.53613 15.7291 4.68513 15.5801 4.86913 15.5801H7.06813C7.25213 15.5801 7.40013 15.7291 7.40013 15.9121V18.7161C7.40013 18.9001 7.25213 19.0481 7.06813 19.0481Z"  stroke-linecap="round"/>
<path fill-rule="evenodd" clip-rule="evenodd" d="M19.6248 19.0481H17.4258C17.2418 19.0481 17.0928 18.9001 17.0928 18.7161V15.9121C17.0928 15.7291 17.2418 15.5801 17.4258 15.5801H19.6248C19.8088 15.5801 19.9568 15.7291 19.9568 15.9121V18.7161C19.9568 18.9001 19.8088 19.0481 19.6248 19.0481Z"  stroke-linecap="round"/>
</svg>
