<?xml version="1.0" encoding="utf-8"?>
<!-- Generator: Adobe Illustrator 23.0.2, SVG Export Plug-In . SVG Version: 6.00 Build 0)  -->
<svg version="1.1" id="Layer_1" xmlns="http://www.w3.org/2000/svg" xmlns:xlink="http://www.w3.org/1999/xlink" x="0px" y="0px"
	 viewBox="0 0 23 23" style="enable-background:new 0 0 23 23;" xml:space="preserve">
<style type="text/css">
	.st0{opacity:0.4;fill-rule:evenodd;clip-rule:evenodd;fill:#8F95AC;}
	.st1{fill-rule:evenodd;clip-rule:evenodd;fill:#8F95AC;}
</style>
<path class="st0" d="M21.5,12.7v-2.5l-3-0.5c-0.2-0.7-0.5-1.4-0.8-2l1.7-2.5l-1.8-1.8l-2.4,1.8c-0.6-0.4-1.3-0.6-2-0.8l-0.5-3h-2.5
	l-0.5,3C9,4.6,8.4,4.9,7.8,5.3L5.3,3.5L3.6,5.3l1.7,2.4C4.9,8.4,4.6,9,4.4,9.7l-2.9,0.5v2.5l2.9,0.5c0.2,0.7,0.5,1.4,0.8,2l-1.7,2.4
	l1.8,1.8l2.5-1.7c0.6,0.4,1.3,0.6,2,0.8l0.5,3h2.5l0.5-3c0.7-0.2,1.4-0.5,2-0.8l2.5,1.7l1.8-1.8l-1.8-2.4c0.4-0.6,0.6-1.3,0.8-2
	L21.5,12.7z M11.5,14.8c-1.8,0-3.3-1.5-3.3-3.3c0-1.8,1.5-3.3,3.3-3.3c1.8,0,3.3,1.5,3.3,3.3C14.8,13.3,13.3,14.8,11.5,14.8z"/>
<circle class="st1" cx="11.5" cy="11.5" r="2"/>
</svg>
