<svg width="22" height="22" viewBox="0 0 22 22" xmlns="http://www.w3.org/2000/svg">
<path d="M21 12.2305L21.1124 12.8708L21.65 12.7764V12.2305H21ZM21 9.7307H21.65V9.1783L21.1048 9.08921L21 9.7307ZM18.0246 9.24448L17.394 9.40223L17.4978 9.81702L17.9198 9.88598L18.0246 9.24448ZM17.2071 7.27086L16.675 6.89751L16.4323 7.24346L16.65 7.60569L17.2071 7.27086ZM18.9412 4.79935L19.4733 5.17269L19.787 4.72565L19.4007 4.3396L18.9412 4.79935ZM17.1733 3.03237L17.6328 2.57263L17.2423 2.18229L16.7939 2.50459L17.1733 3.03237ZM14.7333 4.78643L14.3967 5.34246L14.764 5.56488L15.1127 5.31421L14.7333 4.78643ZM12.7487 3.96065L12.1085 4.07283L12.1815 4.48926L12.5917 4.5914L12.7487 3.96065ZM12.23 1L12.8702 0.887819L12.776 0.35H12.23V1ZM9.73 1V0.35H9.17749L9.08849 0.895294L9.73 1ZM9.24833 3.95107L9.40318 4.58235L9.82061 4.47996L9.88984 4.05577L9.24833 3.95107ZM7.25792 4.76893L6.88005 5.29781L7.22715 5.5458L7.59277 5.32604L7.25792 4.76893ZM4.825 3.03071L5.20287 2.50182L4.7549 2.18177L4.3655 2.57096L4.825 3.03071ZM3.05708 4.79768L2.59759 4.33794L2.21197 4.72335L2.52439 5.17015L3.05708 4.79768ZM4.76833 7.24503L5.32469 7.58113L5.54337 7.21914L5.30103 6.87255L4.76833 7.24503ZM3.93833 9.24157L4.04507 9.88275L4.46547 9.81276L4.5689 9.39931L3.93833 9.24157ZM1 9.7307L0.893265 9.08953L0.35 9.17996V9.7307H1ZM1 12.2305H0.35V12.7754L0.886523 12.8706L1 12.2305ZM3.935 12.7509L4.56583 12.5942L4.46407 12.1846L4.04848 12.1109L3.935 12.7509ZM4.765 14.7466L5.29376 15.1247L5.5428 14.7764L5.32106 14.41L4.765 14.7466ZM3.03042 17.1727L2.50166 16.7947L2.18141 17.2426L2.57059 17.6322L3.03042 17.1727ZM4.7975 18.9414L4.33768 19.4008L4.72338 19.7868L5.17037 19.4738L4.7975 18.9414ZM7.24792 17.2252L7.58266 16.6681L7.22081 16.4507L6.87504 16.6928L7.24792 17.2252ZM9.23833 18.0473L9.87951 17.9405L9.80928 17.5188L9.39423 17.4162L9.23833 18.0473ZM9.73 21L9.08883 21.1068L9.17928 21.65H9.73V21ZM12.23 21V21.65H12.7748L12.87 21.1136L12.23 21ZM12.7554 18.0398L12.5956 17.4097L12.1888 17.5129L12.1154 17.9262L12.7554 18.0398ZM14.735 17.2107L15.1083 16.6785L14.7603 16.4344L14.3971 16.6554L14.735 17.2107ZM17.2025 18.9418L16.8292 19.4739L17.2762 19.7875L17.6623 19.4013L17.2025 18.9418ZM18.97 17.1732L19.4298 17.6326L19.8204 17.2417L19.4975 16.7933L18.97 17.1732ZM17.2087 14.7275L16.6516 14.3926L16.431 14.7598L16.6813 15.1073L17.2087 14.7275ZM18.0246 12.753L17.9122 12.1128L17.4954 12.186L17.3937 12.5967L18.0246 12.753ZM11 13.6833C9.51815 13.6833 8.31667 12.4818 8.31667 11H7.01667C7.01667 13.1998 8.80018 14.9833 11 14.9833V13.6833ZM8.31667 11C8.31667 9.51815 9.51815 8.31667 11 8.31667V7.01667C8.80018 7.01667 7.01667 8.80018 7.01667 11H8.31667ZM11 8.31667C12.4818 8.31667 13.6833 9.51815 13.6833 11H14.9833C14.9833 8.80018 13.1998 7.01667 11 7.01667V8.31667ZM13.6833 11C13.6833 12.4818 12.4818 13.6833 11 13.6833V14.9833C13.1998 14.9833 14.9833 13.1998 14.9833 11H13.6833ZM21.65 12.2305V9.7307H20.35V12.2305H21.65ZM21.1048 9.08921L18.1294 8.60299L17.9198 9.88598L20.8952 10.3722L21.1048 9.08921ZM18.6552 9.08674C18.4632 8.31962 18.1618 7.59751 17.7642 6.93603L16.65 7.60569C16.9816 8.15746 17.2334 8.76027 17.394 9.40223L18.6552 9.08674ZM17.7392 7.6442L19.4733 5.17269L18.4092 4.426L16.675 6.89751L17.7392 7.6442ZM19.4007 4.3396L17.6328 2.57263L16.7138 3.49211L18.4818 5.25909L19.4007 4.3396ZM16.7939 2.50459L14.3539 4.25865L15.1127 5.31421L17.5527 3.56015L16.7939 2.50459ZM15.07 4.2304C14.4068 3.82886 13.6797 3.52256 12.9058 3.3299L12.5917 4.5914C13.237 4.75204 13.8432 5.00738 14.3967 5.34246L15.07 4.2304ZM13.389 3.84847L12.8702 0.887819L11.5898 1.11218L12.1085 4.07283L13.389 3.84847ZM12.23 0.35H9.73V1.65H12.23V0.35ZM9.08849 0.895294L8.60682 3.84636L9.88984 4.05577L10.3715 1.10471L9.08849 0.895294ZM9.09348 3.31978C8.32052 3.50938 7.58937 3.81133 6.92306 4.21182L7.59277 5.32604C8.14647 4.99324 8.75615 4.74106 9.40318 4.58235L9.09348 3.31978ZM7.63578 4.24005L5.20287 2.50182L4.44713 3.55959L6.88005 5.29781L7.63578 4.24005ZM4.3655 2.57096L2.59759 4.33794L3.51658 5.25742L5.2845 3.49045L4.3655 2.57096ZM2.52439 5.17015L4.23564 7.6175L5.30103 6.87255L3.58978 4.42521L2.52439 5.17015ZM4.21198 6.90892C3.80878 7.57634 3.50236 8.30594 3.30776 9.08383L4.5689 9.39931C4.7318 8.74812 4.98789 8.13864 5.32469 7.58113L4.21198 6.90892ZM3.8316 8.60039L0.893265 9.08953L1.10673 10.3719L4.04507 9.88275L3.8316 8.60039ZM0.35 9.7307V12.2305H1.65V9.7307H0.35ZM0.886523 12.8706L3.82152 13.391L4.04848 12.1109L1.11348 11.5905L0.886523 12.8706ZM3.30417 12.9076C3.49726 13.6849 3.80444 14.415 4.20894 15.0832L5.32106 14.41C4.98306 13.8517 4.7269 13.2427 4.56583 12.5942L3.30417 12.9076ZM4.23624 14.3686L2.50166 16.7947L3.55917 17.5508L5.29376 15.1247L4.23624 14.3686ZM2.57059 17.6322L4.33768 19.4008L5.25732 18.482L3.49024 16.7133L2.57059 17.6322ZM5.17037 19.4738L7.62079 17.7576L6.87504 16.6928L4.42462 18.409L5.17037 19.4738ZM6.91318 17.7824C7.57968 18.1828 8.30861 18.4871 9.08244 18.6783L9.39423 17.4162C8.74805 17.2566 8.13949 17.0026 7.58266 16.6681L6.91318 17.7824ZM8.59716 18.154L9.08883 21.1068L10.3712 20.8932L9.87951 17.9405L8.59716 18.154ZM9.73 21.65H12.23V20.35H9.73V21.65ZM12.87 21.1136L13.3954 18.1534L12.1154 17.9262L11.59 20.8864L12.87 21.1136ZM12.9152 18.6698C13.6839 18.4748 14.4115 18.1685 15.0729 17.7659L14.3971 16.6554C13.8469 16.9903 13.2394 17.2464 12.5956 17.4097L12.9152 18.6698ZM14.3617 17.7428L16.8292 19.4739L17.5758 18.4097L15.1083 16.6785L14.3617 17.7428ZM17.6623 19.4013L19.4298 17.6326L18.5102 16.7137L16.7427 18.4823L17.6623 19.4013ZM19.4975 16.7933L17.7362 14.3476L16.6813 15.1073L18.4425 17.553L19.4975 16.7933ZM17.7659 15.0623C18.1635 14.4007 18.4652 13.6773 18.6555 12.9094L17.3937 12.5967C17.2348 13.2378 16.9831 13.841 16.6516 14.3926L17.7659 15.0623ZM18.137 13.3932L21.1124 12.8708L20.8876 11.5903L17.9122 12.1128L18.137 13.3932Z"/>
</svg>
