<svg width="17" height="19" viewBox="0 0 17 19" xmlns="http://www.w3.org/2000/svg">
<path fill-rule="evenodd" clip-rule="evenodd" d="M14.272 18.497H2.612C1.429 18.497 0.5 17.568 0.5 16.385L1.26 2.697C1.26 1.514 2.19 0.5 3.373 0.5H13.512C14.695 0.5 15.625 1.43 15.625 2.612L16.384 16.3C16.384 17.483 15.456 18.497 14.272 18.497Z" />
<path fill-rule="evenodd" clip-rule="evenodd" d="M13.0052 3.96422H3.8792C3.3722 3.96422 2.9502 3.54222 2.9502 3.03422C2.9502 2.52722 3.3722 2.10522 3.8792 2.10522H13.0892C13.5962 2.10522 14.0192 2.52722 14.0192 3.03422C14.0192 3.54222 13.5962 3.96422 13.0052 3.96422Z" />
<path d="M5.82324 5.31641V6.66841C5.82324 8.10441 7.00724 9.28741 8.44224 9.28741C9.87924 9.28741 11.0622 8.10441 11.0622 6.66841V5.31641" />
</svg>
