<svg width="20" height="20" viewBox="0 0 20 20" xmlns="http://www.w3.org/2000/svg">
<path d="M14.5862 0H5.41381C2.42858 0 0 2.42858 0 5.41381V14.5863C0 17.5714 2.42858 20 5.41381 20H14.5863C17.5714 20 20 17.5714 20 14.5863V5.41381C20 2.42858 17.5714 0 14.5862 0ZM9.99998 15.4686C6.98454 15.4686 4.53139 13.0154 4.53139 9.99998C4.53139 6.98454 6.98454 4.53139 9.99998 4.53139C13.0154 4.53139 15.4686 6.98454 15.4686 9.99998C15.4686 13.0154 13.0154 15.4686 9.99998 15.4686ZM15.5993 5.82106C14.7082 5.82106 13.9834 5.09627 13.9834 4.20516C13.9834 3.31405 14.7082 2.58911 15.5993 2.58911C16.4904 2.58911 17.2154 3.31405 17.2154 4.20516C17.2154 5.09627 16.4904 5.82106 15.5993 5.82106Z"  fill-opacity="0.7"/>
<path d="M10 7C8.34587 7 7 8.34576 7 10C7 11.6541 8.34587 13 10 13C11.6542 13 13 11.6541 13 10C13 8.34576 11.6542 7 10 7Z"  fill-opacity="0.7"/>
</svg>
