<svg width="23" height="14" viewBox="0 0 23 14" xmlns="http://www.w3.org/2000/svg">
<path fill-rule="evenodd" clip-rule="evenodd" d="M12.2698 14C13.0352 14 13.0352 12.9111 13.0352 12.4444C13.0352 11.6667 13.8007 10.8889 14.5662 10.8889C15.3316 10.8889 16.6329 12.2111 17.628 13.2222C18.3935 14 18.3935 14 19.159 14H21.4543C21.4543 14 22.9852 13.9222 22.9852 12.4444C22.9852 11.9778 22.4505 11.1222 20.6899 9.33333C19.159 7.77778 18.3935 8.55556 20.6899 5.44444C22.0678 3.50113 23.1394 1.78889 22.9852 1.32222C22.8321 0.856683 18.9293 0.0777777 18.3935 0.778905C16.8626 3.11111 16.5564 3.65556 16.0971 4.66667C15.3316 6.22335 15.254 7 14.5662 7C13.8773 7 13.8007 5.52222 13.8007 4.66667C13.8007 2.1 14.1834 0.311111 13.0352 0H10.7388C9.51408 0 8.44243 0.778905 8.44243 0.778905C8.44243 0.778905 7.52498 1.55556 7.67696 1.55556C7.9066 1.55556 9.2079 1.24557 9.2079 2.33333V3.88889C9.2079 3.88889 9.2079 7 8.44243 7C7.67696 7 6.14602 3.88889 4.6162 1.55556C4.07926 0.623349 3.84962 0.778905 3.08526 0.778905H0.787745C0.0233865 0.778905 -0.0531603 1.32222 0.0233866 1.55556C1.55432 5.44444 2.62598 7.85556 5.53476 10.9667C8.21279 13.7667 9.97336 13.9222 11.5054 14H12.2698Z" fill-opacity="0.7"/>
</svg>
