<svg width="21" height="21" viewBox="0 0 21 21" xmlns="http://www.w3.org/2000/svg">
<path fill-rule="evenodd" clip-rule="evenodd" d="M2.10785 10.0991V10.0991C1.52785 9.5181 1.52785 8.5781 2.10785 7.9971L7.99785 2.1081C8.57785 1.5281 9.51885 1.5281 10.0989 2.1081C10.6789 2.6881 10.6789 3.6291 10.0989 4.2091L4.20985 10.0991C3.62885 10.6791 2.68785 10.6791 2.10785 10.0991Z" />
<path fill-rule="evenodd" clip-rule="evenodd" d="M0.93575 6.99851V6.99851C0.35475 6.41851 0.35475 5.47751 0.93575 4.89651L4.89775 0.935506C5.47775 0.354506 6.41775 0.354506 6.99875 0.935506C7.57975 1.51651 7.57975 2.45651 6.99875 3.03651L3.03775 6.99851C2.45675 7.57951 1.51575 7.57951 0.93575 6.99851Z" />
<path d="M2.91552 2.91649L1.72852 1.72949" />
<path fill-rule="evenodd" clip-rule="evenodd" d="M18.4016 10.4106V10.4106C18.9816 10.9906 18.9816 11.9316 18.4016 12.5126L12.5116 18.4016C11.9316 18.9816 10.9906 18.9816 10.4106 18.4016C9.83059 17.8206 9.83059 16.8806 10.4106 16.3006L16.2996 10.4106C16.8806 9.83059 17.8216 9.83059 18.4016 10.4106Z" />
<path fill-rule="evenodd" clip-rule="evenodd" d="M19.5737 13.5102V13.5102C20.1537 14.0912 20.1537 15.0312 19.5737 15.6122L15.6117 19.5732C15.0307 20.1542 14.0907 20.1542 13.5107 19.5732C12.9287 18.9932 12.9287 18.0532 13.5107 17.4722L17.4717 13.5102C18.0527 12.9302 18.9927 12.9302 19.5737 13.5102Z" />
<path d="M17.5928 17.593L18.7798 18.78" />
<path d="M8.11816 6.25928L14.1882 12.3293" />
<path d="M6.32031 8.18018L12.3903 14.2502" />
</svg>
