<svg width="19" height="19" viewBox="0 0 19 19" fill="none" xmlns="http://www.w3.org/2000/svg">
<path fill-rule="evenodd" clip-rule="evenodd" d="M15.9156 9.86611C15.9156 13.3941 13.0556 16.2541 9.52665 16.2541C5.99865 16.2541 3.13965 13.3941 3.13965 9.86611C3.13965 6.33811 5.99865 3.47711 9.52665 3.47711C13.0556 3.47711 15.9156 6.33811 15.9156 9.86611" fill="#DEE2F3"/>
<path fill-rule="evenodd" clip-rule="evenodd" d="M2.937 6.578C3.599 4.918 4.973 3.621 6.685 3.065C6.212 2.423 5.457 2 4.597 2C3.164 2 2 3.163 2 4.597C2 5.396 2.37 6.101 2.937 6.578" fill="#ADB4D0"/>
<path fill-rule="evenodd" clip-rule="evenodd" d="M16.1167 6.578C15.4547 4.918 14.0797 3.621 12.3687 3.065C12.8417 2.423 13.5967 2 14.4567 2C15.8897 2 17.0537 3.163 17.0537 4.597C17.0537 5.396 16.6837 6.101 16.1167 6.578" fill="#ADB4D0"/>
<path d="M9.41553 6.37491V10.4729" stroke="#ADB4D0"/>
<path d="M11.3169 12.0975L9.2749 10.0555" stroke="#ADB4D0"/>
</svg>
