<svg width="14" height="19" viewBox="0 0 14 19" fill="none" xmlns="http://www.w3.org/2000/svg">
<path fill-rule="evenodd" clip-rule="evenodd" d="M8.57945 2.086H5.29345C5.09845 2.086 4.93945 1.927 4.93945 1.732V0.354C4.93945 0.158 5.09845 0 5.29345 0H8.57945C8.77445 0 8.93345 0.158 8.93345 0.354V1.732C8.93345 1.927 8.77445 2.086 8.57945 2.086Z" fill="#8F95AC"/>
<path fill-rule="evenodd" clip-rule="evenodd" d="M9.77583 18.3516H4.09483C3.23283 18.3516 2.53283 17.6526 2.53283 16.7896L0.798828 2.74659C0.798828 1.88259 1.49883 1.18359 2.36083 1.18359H11.5098C12.3728 1.18359 13.0728 1.88259 13.0728 2.74659L11.3378 16.7896C11.3378 17.6526 10.6388 18.3516 9.77583 18.3516Z" fill="#8F95AC" fill-opacity="0.4"/>
<path fill-rule="evenodd" clip-rule="evenodd" d="M13.302 4.48835H0.571C0.255 4.48835 0 4.23235 0 3.91735V1.75535C0 1.43935 0.255 1.18335 0.571 1.18335H13.302C13.617 1.18335 13.873 1.43935 13.873 1.75535V3.91735C13.873 4.23235 13.617 4.48835 13.302 4.48835Z" fill="#8F95AC"/>
</svg>
