<svg width="17" height="21" viewBox="0 0 17 21" fill="none" xmlns="http://www.w3.org/2000/svg">
<path d="M16.5 3.5C16.5 1.84296 15.157 0.5 13.5 0.5C11.843 0.5 10.5 1.84296 10.5 3.5C10.5 5.15704 11.843 6.5 13.5 6.5C15.157 6.5 16.5 5.15704 16.5 3.5Z"/>
<path d="M6.5 10.5C6.5 8.84296 5.15704 7.5 3.5 7.5C1.84296 7.5 0.5 8.84296 0.5 10.5C0.5 12.157 1.84296 13.5 3.5 13.5C5.15704 13.5 6.5 12.157 6.5 10.5Z"/>
<path d="M16.5 17.5C16.5 15.843 15.157 14.5 13.5 14.5C11.843 14.5 10.5 15.843 10.5 17.5C10.5 19.157 11.843 20.5 13.5 20.5C15.157 20.5 16.5 19.157 16.5 17.5Z"/>
<path d="M6 12L11 16"/>
<path d="M11 5L6 9"/>
</svg>
