<svg width="26" height="16" viewBox="0 0 26 16" fill="none" xmlns="http://www.w3.org/2000/svg">
<path fill-rule="evenodd" clip-rule="evenodd" d="M7.65039 0.649902C9.85939 0.649902 11.6504 2.4419 11.6504 4.6499C11.6504 6.8589 9.85939 8.6499 7.65039 8.6499C5.44139 8.6499 3.65039 6.8589 3.65039 4.6499C3.65039 2.4419 5.44139 0.649902 7.65039 0.649902Z" stroke-width="1.3" stroke-linejoin="round"/>
<path d="M0.650391 15.4321V14.6501C0.650391 12.4501 2.43839 10.6501 4.62439 10.6501H10.6764C12.8614 10.6501 14.6504 12.4501 14.6504 14.6501V15.4321" stroke-width="1.3" stroke-linejoin="round"/>
<path d="M12.7764 11.3354C13.4114 10.9024 14.1744 10.6494 14.9944 10.6494H21.0474C23.2314 10.6494 25.0204 12.4494 25.0204 14.6494V15.4324" stroke-width="1.3" stroke-linejoin="round"/>
<path fill-rule="evenodd" clip-rule="evenodd" d="M18.0207 1.34912C19.8437 1.34912 21.3217 2.82712 21.3217 4.65012C21.3217 6.47312 19.8437 7.95112 18.0207 7.95112C16.1977 7.95112 14.7197 6.47312 14.7197 4.65012C14.7197 2.82712 16.1977 1.34912 18.0207 1.34912Z" stroke-width="1.3" stroke-linejoin="round"/>
</svg>
